<?xml version="1.1" encoding="UTF-8"?>
<svg xmlns="http://www.w3.org/2000/svg"
    xmlns:latexdraw="http://latexdraw.sourceforge.net/namespaces/latexdraw"
    version="1.1" baseProfile="full">
    <g>
        <g latexdraw:type="circle" id="id281199541">
            <circle cx="437.64705882353076" cy="231.1764705882349"
                r="45.970588235293576" latexdraw:borderPos="outer"
                stroke-width="1.0" stroke="#ff3333" fill="url(#pattern281199541)"/>
        </g>
        <g latexdraw:type="circle" id="id152932001">
            <circle cx="251.17647058823627" cy="178.82352941176424"
                r="31.852941176470722" latexdraw:borderPos="outer"
                stroke-width="1.0" stroke="#ff3333" fill="url(#pattern152932001)"/>
        </g>
        <g latexdraw:type="circle" id="id884674678">
            <circle cx="163.52941176470603" cy="307.64705882352933"
                r="33.029411764705685" latexdraw:borderPos="outer"
                stroke-width="1.0" stroke="#ff3333" fill="url(#pattern884674678)"/>
        </g>
        <g latexdraw:type="circle" id="id1939991882">
            <circle cx="142.35294117647095" cy="427.05882352941194"
                r="31.264705882353027" latexdraw:borderPos="outer"
                stroke-width="1.0" stroke="#ff3333" fill="url(#pattern1939991882)"/>
        </g>
        <g latexdraw:type="rectangle" id="id1987758136">
            <rect x="1.0" y="1.0" width="1079.1764705882351"
                height="628.5882352941176" latexdraw:borderPos="outer"
                stroke-width="2.0" stroke="black" fill="none"/>
        </g>
        <g latexdraw:type="joinedLines" id="id992294878">
            <polyline
                points="0.0,564.7058823529412 1082.3529411764707,564.7058823529412 "
                stroke-width="2.0" stroke="black" latexdraw:rotationAngle="0.0"/>
        </g>
        <g latexdraw:type="joinedLines" id="id642308834">
            <polyline
                points="540.0,0.0 537.6470588235293,564.7058823529412 "
                stroke-width="2.0" stroke="black" latexdraw:rotationAngle="0.0"/>
        </g>
        <g latexdraw:type="bezierCurve" id="id829366177">
            <path
                d="M 470.5882352941177 258.8235294117647 C 421.17647058823536 217.6470588235294 378.7314608974898 172.92583171820905 329.4117647058824 164.7058823529412 C 280.092068514275 156.48593298767332 215.29411764705884 182.35294117647058 195.29411764705884 222.35294117647058 C 175.29411764705884 262.3529411764706 161.1764705882353 305.88235294117646 160.0 320.0 C 158.8235294117647 334.11764705882354 154.11764705882354 360.0 154.11764705882354 360.0 C 154.11764705882354 360.0 147.05882352941177 384.70588235294116 145.88235294117646 422.3529411764706 "
                stroke-width="10.0" stroke="black" fill="none" latexdraw:rotationAngle="0.0"/>
        </g>
        <g latexdraw:type="dot" id="id1787353660" latexdraw:size="27.0"
            latexdraw:dotShape="*" latexdraw:position="444.7058823529415 235.29411764705884">
            <path
                d="M 457.16742081447995 235.29411764705884 C 457.16742081447995 242.17643529879643 451.5882000046791 247.75565610859732 444.7058823529415 247.75565610859732 C 437.8235647012039 247.75565610859732 432.24434389140305 242.17643529879643 432.24434389140305 235.29411764705884 C 432.24434389140305 228.41179999532127 437.8235647012039 222.8325791855204 444.7058823529415 222.8325791855204 C 451.5882000046791 222.8325791855204 457.16742081447995 228.41179999532127 457.16742081447995 235.29411764705884 z "
                fill="black" stroke-linecap="square"
                stroke-linejoin="butt" stroke-width="1.6875"
                stroke-miterlimit="10.0" stroke-dashoffset="0.0" stroke="black"/>
        </g>
        <g latexdraw:type="dot" id="id1998474849" latexdraw:size="27.0"
            latexdraw:dotShape="*" latexdraw:position="251.76470588235298 176.4705882352939">
            <path
                d="M 264.22624434389144 176.4705882352939 C 264.22624434389144 183.35290588703148 258.6470235340906 188.93212669683237 251.76470588235298 188.93212669683237 C 244.88238823061542 188.93212669683237 239.30316742081453 183.35290588703148 239.30316742081453 176.4705882352939 C 239.30316742081453 169.58827058355632 244.88238823061542 164.00904977375544 251.76470588235298 164.00904977375544 C 258.6470235340906 164.00904977375544 264.22624434389144 169.58827058355632 264.22624434389144 176.4705882352939 z "
                fill="black" stroke-linecap="square"
                stroke-linejoin="butt" stroke-width="1.6875"
                stroke-miterlimit="10.0" stroke-dashoffset="0.0" stroke="black"/>
        </g>
        <g latexdraw:type="dot" id="id1652467151"
            latexdraw:size="27.000000000000146" latexdraw:dotShape="*" latexdraw:position="164.7058823529412 305.88235294117646">
            <path
                d="M 177.1674208144797 305.88235294117646 C 177.1674208144797 312.7646705929141 171.5882000046788 318.34389140271503 164.7058823529412 318.34389140271503 C 157.82356470120357 318.34389140271503 152.24434389140265 312.7646705929141 152.24434389140265 305.88235294117646 C 152.24434389140265 299.00003528943887 157.82356470120357 293.42081447963795 164.7058823529412 293.42081447963795 C 171.5882000046788 293.42081447963795 177.1674208144797 299.00003528943887 177.1674208144797 305.88235294117646 z "
                fill="black" stroke-linecap="square"
                stroke-linejoin="butt" stroke-width="1.6875"
                stroke-miterlimit="10.0" stroke-dashoffset="0.0" stroke="black"/>
        </g>
        <g latexdraw:type="dot" id="id2115972722" latexdraw:size="27.0"
            latexdraw:dotShape="*" latexdraw:position="143.52941176470603 420.0000000000001">
            <path
                d="M 155.9909502262445 420.0000000000001 C 155.9909502262445 426.8823176517377 150.41172941644362 432.46153846153857 143.52941176470603 432.46153846153857 C 136.64709411296846 432.46153846153857 131.06787330316757 426.8823176517377 131.06787330316757 420.0000000000001 C 131.06787330316757 413.1176823482625 136.64709411296846 407.53846153846166 143.52941176470603 407.53846153846166 C 150.41172941644362 407.53846153846166 155.9909502262445 413.1176823482625 155.9909502262445 420.0000000000001 z "
                fill="black" stroke-linecap="square"
                stroke-linejoin="butt" stroke-width="1.6875"
                stroke-miterlimit="10.0" stroke-dashoffset="0.0" stroke="black"/>
        </g>
        <g latexdraw:type="joinedLines" id="id312980003">
            <polyline
                points="518.8235294117648,309.4117647058824 467.05882352941177,255.29411764705884 "
                stroke-width="10.0" stroke="black"
                latexdraw:rotationAngle="0.0" marker-start="url(#arrow0-312980003)"/>
        </g>
        <g latexdraw:type="text" id="id1547822447" fill="black" latexdraw:position="bl">
            <text x="470.588235294118" y="334.11764705882405">\cn{到香港}</text>
        </g>
        <g latexdraw:type="bezierCurve" id="id762150600">
            <path
                d="M 442.3529411764706 233.3863275039745 C 393.47305942654526 226.23354994353363 381.9411688097968 215.91808987470628 334.08823529411757 215.29411764705884 C 286.2353017784383 214.6701454194114 277.85541236772167 216.85358174003596 232.61764705882342 240.47694753577107 C 187.3798817499251 264.1003133315062 191.91177236667286 277.37284812211385 167.05882352941217 303.5294117647054 "
                stroke-width="4.0" stroke="black" fill="none" latexdraw:rotationAngle="0.0"/>
        </g>
        <g latexdraw:type="bezierCurve" id="id772476564">
            <path
                d="M 270.5882352941177 220.0 C 257.3114274314348 198.97561700913792 280.40007080362983 214.72645045565193 252.94117647058823 172.94117647058823 C 225.48228213754663 131.15590248552454 224.10861657674766 186.78397402921328 201.1764705882353 142.35294117647058 C 178.2443245997229 97.92190832372776 160.02094396373684 111.47068847470999 187.05882352941177 69.41176470588235 C 214.09670309508664 27.35284093705468 227.05028947667415 53.877649958857916 236.47058823529412 91.76470588235294 C 245.89088699391408 129.65176180584797 257.51968984521386 127.17488998540992 201.1764705882353 140.0 "
                stroke-width="4.0" stroke="black" fill="none" latexdraw:rotationAngle="0.0"/>
        </g>
        <g latexdraw:type="bezierCurve" id="id1279885557">
            <path
                d="M 157.64705882352942 311.7647058823529 C 157.60730500313645 346.41948681880046 128.21994936526823 347.15089204368593 131.76470588235296 381.1764705882353 C 135.30946239943768 415.2020491327847 150.5484814737247 417.00772211291763 131.76470588235296 443.5294117647059 C 112.9809302909812 470.0511014164942 121.19181534061468 466.966755015135 92.94117647058823 503.5294117647059 "
                stroke-width="4.0" stroke="black" fill="none" latexdraw:rotationAngle="0.0"/>
        </g>
        <g latexdraw:type="bezierCurve" id="id559694959">
            <path
                d="M 159.19736118746584 308.2352941176471 C 125.57368880044032 310.9151526534623 109.5471056935094 301.9266701543591 83.52941176470588 342.5688756515264 C 57.511717835902374 383.2110811486937 89.49529125648829 403.79787409785735 93.24903793292994 413.6411020104242 C 97.00278460937162 423.48432992299104 166.27317781533438 418.9783203421909 186.04727872457423 427.88533134772854 C 205.82137963381408 436.7923423532662 208.47585766439752 469.2235365834425 214.1176470588239 495.29411764705856 "
                stroke-width="4.0" stroke="black" fill="none" latexdraw:rotationAngle="0.0"/>
        </g>
    </g>
    <defs>
        <pattern latexdraw:type="crosshatch"
            latexdraw:rotationAngle="0.0"
            latexdraw:size="7.055555555555555"
            patternUnits="userSpaceOnUse" id="pattern281199541" x="0"
            y="0" width="484" height="277">
            <g stroke="#ff3333" stroke-width="1.4111111111111112" stroke-dasharray="none">
                <path d="M 391.1764705882372 184.7058823529419 L 391.1764705882372 277.6470588235279 M 399.6431372549038 184.7058823529419 L 399.6431372549038 277.6470588235279 M 408.10980392157046 184.7058823529419 L 408.10980392157046 277.6470588235279 M 416.5764705882371 184.7058823529419 L 416.5764705882371 277.6470588235279 M 425.04313725490374 184.7058823529419 L 425.04313725490374 277.6470588235279 M 433.5098039215704 184.7058823529419 L 433.5098039215704 277.6470588235279 M 441.976470588237 184.7058823529419 L 441.976470588237 277.6470588235279 M 450.44313725490366 184.7058823529419 L 450.44313725490366 277.6470588235279 M 458.9098039215703 184.7058823529419 L 458.9098039215703 277.6470588235279 M 467.37647058823694 184.7058823529419 L 467.37647058823694 277.6470588235279 M 475.8431372549036 184.7058823529419 L 475.8431372549036 277.6470588235279 M 391.1764705882372 184.7058823529419 L 484.11764705882433 184.7058823529419 M 391.1764705882372 193.17254901960857 L 484.11764705882433 193.17254901960857 M 391.1764705882372 201.63921568627524 L 484.11764705882433 201.63921568627524 M 391.1764705882372 210.1058823529419 L 484.11764705882433 210.1058823529419 M 391.1764705882372 218.57254901960857 L 484.11764705882433 218.57254901960857 M 391.1764705882372 227.03921568627524 L 484.11764705882433 227.03921568627524 M 391.1764705882372 235.5058823529419 L 484.11764705882433 235.5058823529419 M 391.1764705882372 243.97254901960858 L 484.11764705882433 243.97254901960858 M 391.1764705882372 252.43921568627525 L 484.11764705882433 252.43921568627525 M 391.1764705882372 260.9058823529419 L 484.11764705882433 260.9058823529419 M 391.1764705882372 269.3725490196085 L 484.11764705882433 269.3725490196085 "/>
            </g>
        </pattern>
        <pattern latexdraw:type="crosshatch"
            latexdraw:rotationAngle="0.0"
            latexdraw:size="7.055555555555555"
            patternUnits="userSpaceOnUse" id="pattern152932001" x="0"
            y="0" width="283" height="211">
            <g stroke="#ff3333" stroke-width="1.4111111111111112" stroke-dasharray="none">
                <path d="M 218.82352941176555 146.4705882352938 L 218.82352941176555 211.17647058823468 M 227.29019607843222 146.4705882352938 L 227.29019607843222 211.17647058823468 M 235.75686274509889 146.4705882352938 L 235.75686274509889 211.17647058823468 M 244.22352941176555 146.4705882352938 L 244.22352941176555 211.17647058823468 M 252.69019607843222 146.4705882352938 L 252.69019607843222 211.17647058823468 M 261.15686274509886 146.4705882352938 L 261.15686274509886 211.17647058823468 M 269.6235294117655 146.4705882352938 L 269.6235294117655 211.17647058823468 M 278.09019607843214 146.4705882352938 L 278.09019607843214 211.17647058823468 M 218.82352941176555 146.4705882352938 L 283.529411764707 146.4705882352938 M 218.82352941176555 154.93725490196047 L 283.529411764707 154.93725490196047 M 218.82352941176555 163.40392156862714 L 283.529411764707 163.40392156862714 M 218.82352941176555 171.8705882352938 L 283.529411764707 171.8705882352938 M 218.82352941176555 180.33725490196048 L 283.529411764707 180.33725490196048 M 218.82352941176555 188.80392156862715 L 283.529411764707 188.80392156862715 M 218.82352941176555 197.27058823529381 L 283.529411764707 197.27058823529381 M 218.82352941176555 205.73725490196048 L 283.529411764707 205.73725490196048 "/>
            </g>
        </pattern>
        <pattern latexdraw:type="crosshatch"
            latexdraw:rotationAngle="0.0"
            latexdraw:size="7.055555555555555"
            patternUnits="userSpaceOnUse" id="pattern884674678" x="0"
            y="0" width="197" height="341">
            <g stroke="#ff3333" stroke-width="1.4111111111111112" stroke-dasharray="none">
                <path d="M 130.00000000000034 274.117647058824 L 130.00000000000034 341.1764705882347 M 138.466666666667 274.117647058824 L 138.466666666667 341.1764705882347 M 146.93333333333368 274.117647058824 L 146.93333333333368 341.1764705882347 M 155.40000000000035 274.117647058824 L 155.40000000000035 341.1764705882347 M 163.86666666666702 274.117647058824 L 163.86666666666702 341.1764705882347 M 172.33333333333368 274.117647058824 L 172.33333333333368 341.1764705882347 M 180.80000000000035 274.117647058824 L 180.80000000000035 341.1764705882347 M 189.26666666666702 274.117647058824 L 189.26666666666702 341.1764705882347 M 130.00000000000034 274.117647058824 L 197.0588235294117 274.117647058824 M 130.00000000000034 282.58431372549063 L 197.0588235294117 282.58431372549063 M 130.00000000000034 291.05098039215727 L 197.0588235294117 291.05098039215727 M 130.00000000000034 299.5176470588239 L 197.0588235294117 299.5176470588239 M 130.00000000000034 307.98431372549055 L 197.0588235294117 307.98431372549055 M 130.00000000000034 316.4509803921572 L 197.0588235294117 316.4509803921572 M 130.00000000000034 324.91764705882383 L 197.0588235294117 324.91764705882383 M 130.00000000000034 333.3843137254905 L 197.0588235294117 333.3843137254905 "/>
            </g>
        </pattern>
        <pattern latexdraw:type="crosshatch"
            latexdraw:rotationAngle="0.0"
            latexdraw:size="7.055555555555555"
            patternUnits="userSpaceOnUse" id="pattern1939991882" x="0"
            y="0" width="174" height="458">
            <g stroke="#ff3333" stroke-width="1.4111111111111112" stroke-dasharray="none">
                <path d="M 110.58823529411794 395.294117647059 L 110.58823529411794 458.82352941176487 M 119.0549019607846 395.294117647059 L 119.0549019607846 458.82352941176487 M 127.52156862745127 395.294117647059 L 127.52156862745127 458.82352941176487 M 135.98823529411794 395.294117647059 L 135.98823529411794 458.82352941176487 M 144.4549019607846 395.294117647059 L 144.4549019607846 458.82352941176487 M 152.92156862745128 395.294117647059 L 152.92156862745128 458.82352941176487 M 161.38823529411795 395.294117647059 L 161.38823529411795 458.82352941176487 M 169.85490196078462 395.294117647059 L 169.85490196078462 458.82352941176487 M 110.58823529411794 395.294117647059 L 174.117647058824 395.294117647059 M 110.58823529411794 403.76078431372565 L 174.117647058824 403.76078431372565 M 110.58823529411794 412.2274509803923 L 174.117647058824 412.2274509803923 M 110.58823529411794 420.69411764705893 L 174.117647058824 420.69411764705893 M 110.58823529411794 429.16078431372557 L 174.117647058824 429.16078431372557 M 110.58823529411794 437.6274509803922 L 174.117647058824 437.6274509803922 M 110.58823529411794 446.09411764705885 L 174.117647058824 446.09411764705885 M 110.58823529411794 454.5607843137255 L 174.117647058824 454.5607843137255 "/>
            </g>
        </pattern>
        <marker overflow="visible" orient="auto" id="arrow0-312980003">
            <path
                d="M 0.0 0.0 L 3.1704166666666667 1.1322916666666667 L 3.1704166666666667 0.0 L 3.1704166666666667 -1.1322916666666667 z "
                latexdraw:arrSizeNum="2.0" fill="black"/>
        </marker>
    </defs>
    <metadata>
        <latexdraw:metadata>
            <latexdraw:latexIncludes>\usepackage{CJKutf8}
\newcommand{\cn}[1]{
  \begin{CJK*}{UTF8}{gbsn}
  #1
  \end{CJK*}
}
</latexdraw:latexIncludes>
            <latexdraw:displayXScale>true</latexdraw:displayXScale>
            <latexdraw:displayYScale>true</latexdraw:displayYScale>
            <latexdraw:unit>CM</latexdraw:unit>
            <latexdraw:zoom>0.85</latexdraw:zoom>
            <latexdraw:magneticGridStyle>CUSTOMISED</latexdraw:magneticGridStyle>
            <latexdraw:gridGap>20</latexdraw:gridGap>
            <latexdraw:magneticGrid>false</latexdraw:magneticGrid>
            <latexdraw:version>3.3.6</latexdraw:version>
            <latexdraw:size>
                <latexdraw:width>1440</latexdraw:width>
                <latexdraw:height>803</latexdraw:height>
            </latexdraw:size>
            <latexdraw:position>
                <latexdraw:x>0.0</latexdraw:x>
                <latexdraw:y>23.0</latexdraw:y>
            </latexdraw:position>
        </latexdraw:metadata>
    </metadata>
</svg>
