<?xml version="1.1" encoding="UTF-8"?>
<svg xmlns="http://www.w3.org/2000/svg"
    xmlns:latexdraw="http://latexdraw.sourceforge.net/namespaces/latexdraw"
    version="1.1" baseProfile="full">
    <g>
        <g latexdraw:type="bezierCurve" id="id375184776">
            <path
                d="M 211.1764705882353 427.64705882352945 C 186.45511103823938 411.16873198970796 130.33438611630655 470.62899755505316 134.7058823529412 499.4117647058824 C 139.07737858957583 528.1945318567116 234.75394493246793 540.1773480722916 240.58823529411765 504.11764705882354 C 246.42252565576737 468.0579460453555 235.89783013823123 444.12538565735093 211.1764705882353 427.64705882352945 z "
                stroke-width="2.0" stroke="red"
                fill="url(#pattern375184776)" latexdraw:rotationAngle="0.0"/>
        </g>
        <g latexdraw:type="bezierCurve" id="id507346784">
            <path
                d="M 120.0 292.94117647058823 C 75.2786404500043 270.5804966955904 54.45203317512992 325.33487990799495 56.470588235294116 375.29411764705884 C 58.48914329545831 425.25335538612273 94.16570963835011 449.0008774840561 124.70588235294117 409.4117647058824 C 155.24605506753224 369.82265192770865 164.7213595499957 315.30185624558607 120.0 292.94117647058823 z "
                stroke-width="2.0" stroke="red"
                fill="url(#pattern507346784)" latexdraw:rotationAngle="0.0"/>
        </g>
        <g latexdraw:type="bezierCurve" id="id1936184565">
            <path
                d="M 185.88235294117646 151.76470588235296 C 226.9508512248411 174.25146375668862 265.4199805050125 132.42893493046995 257.6470588235294 102.60180995475099 C 249.87413714204627 72.77468497903203 213.00239788285688 35.766208909104535 178.82352941176472 55.294117647058556 C 144.64466094067257 74.82202638501258 144.81385465751183 129.2779480080173 185.88235294117646 151.76470588235296 z "
                stroke-width="2.0" stroke="red"
                fill="url(#pattern1936184565)" latexdraw:rotationAngle="0.0"/>
        </g>
        <g latexdraw:type="circle" id="id718413125">
            <circle cx="437.64705882353076" cy="231.1764705882349"
                r="45.970588235293576" latexdraw:borderPos="outer"
                stroke-width="1.0" stroke="#ff3333" fill="url(#pattern718413125)"/>
        </g>
        <g latexdraw:type="circle" id="id749480761">
            <circle cx="251.17647058823627" cy="178.82352941176424"
                r="31.852941176470722" latexdraw:borderPos="outer"
                stroke-width="1.0" stroke="#ff3333" fill="url(#pattern749480761)"/>
        </g>
        <g latexdraw:type="circle" id="id808218810">
            <circle cx="163.52941176470603" cy="307.64705882352933"
                r="33.029411764705685" latexdraw:borderPos="outer"
                stroke-width="1.0" stroke="#ff3333" fill="url(#pattern808218810)"/>
        </g>
        <g latexdraw:type="circle" id="id107347019">
            <circle cx="142.35294117647095" cy="427.05882352941194"
                r="31.26470588235304" latexdraw:borderPos="outer"
                stroke-width="1.0" stroke="#ff3333" fill="url(#pattern107347019)"/>
        </g>
        <g latexdraw:type="rectangle" id="id581574753">
            <rect x="1.0" y="1.0" width="1079.1764705882351"
                height="628.5882352941176" latexdraw:borderPos="outer"
                stroke-width="2.0" stroke="black" fill="none"/>
        </g>
        <g latexdraw:type="joinedLines" id="id566537186">
            <polyline
                points="0.0,564.7058823529412 1082.3529411764707,564.7058823529412 "
                stroke-width="2.0" stroke="black" latexdraw:rotationAngle="0.0"/>
        </g>
        <g latexdraw:type="joinedLines" id="id642453738">
            <polyline
                points="540.0,0.0 537.6470588235293,564.7058823529412 "
                stroke-width="2.0" stroke="black" latexdraw:rotationAngle="0.0"/>
        </g>
        <g latexdraw:type="bezierCurve" id="id24010060">
            <path
                d="M 470.5882352941177 258.8235294117647 C 421.17647058823536 217.6470588235294 378.7314608974898 172.92583171820905 329.4117647058824 164.7058823529412 C 280.09206851427496 156.48593298767332 215.29411764705884 182.35294117647058 195.29411764705884 222.35294117647058 C 175.29411764705884 262.3529411764706 161.1764705882353 305.88235294117646 160.0 320.0 C 158.8235294117647 334.11764705882354 154.11764705882354 360.0 154.11764705882354 360.0 C 154.11764705882354 360.0 147.05882352941177 384.70588235294116 145.88235294117646 422.3529411764706 "
                stroke-width="10.0" stroke="black" fill="none" latexdraw:rotationAngle="0.0"/>
        </g>
        <g latexdraw:type="dot" id="id565007354" latexdraw:size="27.0"
            latexdraw:dotShape="*" latexdraw:position="444.7058823529415 235.29411764705884">
            <path
                d="M 457.16742081447995 235.29411764705884 C 457.16742081447995 242.17643529879643 451.5882000046791 247.75565610859732 444.7058823529415 247.75565610859732 C 437.8235647012039 247.75565610859732 432.24434389140305 242.17643529879643 432.24434389140305 235.29411764705884 C 432.24434389140305 228.41179999532127 437.8235647012039 222.8325791855204 444.7058823529415 222.8325791855204 C 451.5882000046791 222.8325791855204 457.16742081447995 228.41179999532127 457.16742081447995 235.29411764705884 z "
                fill="black" stroke-linecap="square"
                stroke-linejoin="butt" stroke-width="1.6875"
                stroke-miterlimit="10.0" stroke-dashoffset="0.0" stroke="black"/>
        </g>
        <g latexdraw:type="dot" id="id1159171208" latexdraw:size="27.0"
            latexdraw:dotShape="*" latexdraw:position="251.76470588235298 176.4705882352939">
            <path
                d="M 264.22624434389144 176.4705882352939 C 264.22624434389144 183.35290588703148 258.6470235340906 188.93212669683237 251.76470588235298 188.93212669683237 C 244.88238823061542 188.93212669683237 239.30316742081453 183.35290588703148 239.30316742081453 176.4705882352939 C 239.30316742081453 169.58827058355632 244.88238823061542 164.00904977375544 251.76470588235298 164.00904977375544 C 258.6470235340906 164.00904977375544 264.22624434389144 169.58827058355632 264.22624434389144 176.4705882352939 z "
                fill="black" stroke-linecap="square"
                stroke-linejoin="butt" stroke-width="1.6875"
                stroke-miterlimit="10.0" stroke-dashoffset="0.0" stroke="black"/>
        </g>
        <g latexdraw:type="dot" id="id404278194"
            latexdraw:size="27.000000000000146" latexdraw:dotShape="*" latexdraw:position="164.7058823529412 305.88235294117646">
            <path
                d="M 177.1674208144797 305.88235294117646 C 177.1674208144797 312.7646705929141 171.5882000046788 318.34389140271503 164.7058823529412 318.34389140271503 C 157.82356470120357 318.34389140271503 152.24434389140265 312.7646705929141 152.24434389140265 305.88235294117646 C 152.24434389140265 299.00003528943887 157.82356470120357 293.42081447963795 164.7058823529412 293.42081447963795 C 171.5882000046788 293.42081447963795 177.1674208144797 299.00003528943887 177.1674208144797 305.88235294117646 z "
                fill="black" stroke-linecap="square"
                stroke-linejoin="butt" stroke-width="1.6875"
                stroke-miterlimit="10.0" stroke-dashoffset="0.0" stroke="black"/>
        </g>
        <g latexdraw:type="dot" id="id102699354" latexdraw:size="27.0"
            latexdraw:dotShape="*" latexdraw:position="143.52941176470603 420.0000000000001">
            <path
                d="M 155.9909502262445 420.0000000000001 C 155.9909502262445 426.8823176517377 150.41172941644362 432.46153846153857 143.52941176470603 432.46153846153857 C 136.64709411296846 432.46153846153857 131.06787330316757 426.8823176517377 131.06787330316757 420.0000000000001 C 131.06787330316757 413.1176823482625 136.64709411296846 407.53846153846166 143.52941176470603 407.53846153846166 C 150.41172941644362 407.53846153846166 155.9909502262445 413.1176823482625 155.9909502262445 420.0000000000001 z "
                fill="black" stroke-linecap="square"
                stroke-linejoin="butt" stroke-width="1.6875"
                stroke-miterlimit="10.0" stroke-dashoffset="0.0" stroke="black"/>
        </g>
        <g latexdraw:type="joinedLines" id="id707787269">
            <polyline
                points="518.8235294117648,309.4117647058824 467.05882352941177,255.29411764705884 "
                stroke-width="10.0" stroke="black"
                latexdraw:rotationAngle="0.0" marker-start="url(#arrow0-707787269)"/>
        </g>
        <g latexdraw:type="text" id="id193088630" fill="black" latexdraw:position="bl">
            <text x="467.0588235294126" y="324.70588235294116">\cn{到香港}</text>
        </g>
        <g latexdraw:type="bezierCurve" id="id782909138">
            <path
                d="M 442.3529411764706 233.3863275039745 C 393.47305942654526 226.23354994353363 381.9411688097968 215.91808987470628 334.08823529411757 215.29411764705884 C 286.2353017784383 214.6701454194114 277.85541236772167 216.85358174003596 232.61764705882342 240.47694753577107 C 187.37988174992518 264.1003133315062 191.91177236667286 277.37284812211385 167.05882352941217 303.5294117647054 "
                stroke-width="4.0" stroke="black" fill="none" latexdraw:rotationAngle="0.0"/>
        </g>
        <g latexdraw:type="bezierCurve" id="id1941984576">
            <path
                d="M 270.5882352941177 220.0 C 257.3114274314348 201.27515889876338 280.40007080362983 215.30324493706502 252.94117647058823 178.08823529411754 C 225.48228213754663 140.87322565117006 224.10861657674766 190.416976869768 201.1764705882353 150.8455882352938 C 178.24432459972294 111.2741996008196 160.02094396373684 123.34108192278833 187.05882352941177 85.88235294117612 C 214.0967030950867 48.42362395956391 229.40323065314473 86.16492905343121 236.47058823529412 105.7904411764703 C 243.5379458174435 125.41595329950938 257.51968984521386 137.32763639325555 201.1764705882353 148.74999999999983 "
                stroke-width="4.0" stroke="black" fill="none" latexdraw:rotationAngle="0.0"/>
        </g>
        <g latexdraw:type="bezierCurve" id="id792213619">
            <path
                d="M 157.64705882352942 311.7647058823529 C 157.60007703579237 348.9707590349806 122.86956582740252 349.75601004329314 127.05882352941171 386.2865391555395 C 131.24808123142088 422.8170682677859 149.25783104648738 424.75567422805113 127.05882352941171 453.2298809094191 C 104.85981601233604 481.704087590787 114.56358925281219 478.39267274270134 81.17647058823513 517.6470588235293 "
                stroke-width="4.0" stroke="black" fill="none" latexdraw:rotationAngle="0.0"/>
        </g>
        <g latexdraw:type="bezierCurve" id="id2019769213">
            <path
                d="M 159.19736118746584 308.2352941176471 C 125.57368880044032 310.9151526534623 109.5471056935094 301.9266701543591 83.52941176470588 342.5688756515264 C 57.511717835902374 383.2110811486937 89.49529125648829 403.79787409785735 93.24903793292994 413.6411020104242 C 97.00278460937159 423.4843299229911 166.27317781533438 418.9783203421909 186.04727872457423 427.88533134772854 C 205.82137963381408 436.7923423532662 213.18174001733885 446.8705954069722 218.82352941176524 472.94117647058823 "
                stroke-width="4.0" stroke="black" fill="none" latexdraw:rotationAngle="0.0"/>
        </g>
        <g latexdraw:type="rectangle" id="id409160384">
            <rect x="24.529411764705884" y="599.8235294117649"
                width="52.11764705882338" height="22.705882352941217"
                latexdraw:borderPos="outer" stroke-width="2.0"
                stroke="red" fill="url(#pattern409160384)"/>
        </g>
        <g latexdraw:type="rectangle" id="id807491495">
            <rect x="24.529411764705856" y="569.235294117647"
                width="53.294117647059466" height="23.882352941176464"
                latexdraw:borderPos="outer" stroke-width="2.0"
                stroke="red" fill="url(#pattern807491495)"/>
        </g>
        <g latexdraw:type="dot" id="id1951977310" latexdraw:size="27.0"
            latexdraw:dotShape="*" latexdraw:position="258.23529411764713 584.1176470588232">
            <path
                d="M 270.6968325791856 584.1176470588232 C 270.6968325791856 590.9999647105608 265.1176117693847 596.5791855203616 258.23529411764713 596.5791855203616 C 251.35297646590956 596.5791855203616 245.77375565610868 590.9999647105608 245.77375565610868 584.1176470588232 C 245.77375565610868 577.2353294070856 251.35297646590956 571.6561085972847 258.23529411764713 571.6561085972847 C 265.1176117693847 571.6561085972847 270.6968325791856 577.2353294070856 270.6968325791856 584.1176470588232 z "
                fill="black" stroke-linecap="square"
                stroke-linejoin="butt" stroke-width="1.6875"
                stroke-miterlimit="10.0" stroke-dashoffset="0.0" stroke="black"/>
        </g>
        <g latexdraw:type="joinedLines" id="id1579671997">
            <polyline
                points="285.2941176470591,613.5294117647059 230.00000000000006,613.5294117647061 "
                stroke-width="10.0" stroke="black" latexdraw:rotationAngle="0.0"/>
        </g>
        <g latexdraw:type="bezierCurve" id="id1738773585">
            <path
                d="M 93.5294117647054 503.38632750397454 C 128.75291799483884 520.9394322964748 119.07635017357924 487.0945604629416 146.46521493212654 486.47058823529414 C 173.85407969067384 485.8466160076467 171.10331392244063 497.44181703415376 190.0427036199092 508.1240063593005 C 208.98209331737775 518.8061956844472 227.27800503003994 505.01990694564273 217.0588235294123 467.6470588235289 "
                stroke-width="4.0" stroke="black" fill="none" latexdraw:rotationAngle="0.0"/>
        </g>
        <g latexdraw:type="bezierCurve" id="id1785887269">
            <path
                d="M 276.47058823529414 207.05882352941177 C 234.1021698617688 220.31502654075774 177.98144493983594 254.7900623294748 182.35294117647058 276.47058823529414 C 186.72443741310522 298.15111414111345 243.57747434423266 242.21150893756956 352.94117647058823 232.696715049656 C 462.3048785969438 223.18192116174245 318.8390066088195 193.8026205180658 276.47058823529414 207.05882352941177 z "
                stroke-width="2.0" stroke="red"
                fill="url(#pattern1785887269)" latexdraw:rotationAngle="0.0"/>
        </g>
        <g latexdraw:type="bezierCurve" id="id1492050657">
            <path
                d="M 202.35294117647058 347.05882352941177 C 196.07765479240294 396.66346827966083 255.2075275953802 471.8608245357787 303.5294117647059 484.7058823529412 C 351.8512959340316 497.55094017010373 512.5482430277018 446.07523298550666 518.8235294117648 396.47058823529414 C 525.0988157958277 346.86594348508163 400.086590051679 274.02152840539793 351.7647058823529 261.1764705882353 C 303.44282171302683 248.33141277107268 208.62822756053822 297.4541787791627 202.35294117647058 347.05882352941177 z "
                stroke-width="2.0" stroke="#66cc00"
                fill="url(#pattern1492050657)" latexdraw:rotationAngle="0.0"/>
        </g>
        <g latexdraw:type="dot" id="id1611374015" latexdraw:size="27.0"
            latexdraw:dotShape="*" latexdraw:position="80.00000000000028 519.9999999999998">
            <path
                d="M 92.46153846153874 519.9999999999998 C 92.46153846153874 526.8823176517374 86.88231765173786 532.4615384615382 80.00000000000028 532.4615384615382 C 73.1176823482627 532.4615384615382 67.53846153846182 526.8823176517374 67.53846153846182 519.9999999999998 C 67.53846153846182 513.1176823482622 73.1176823482627 507.5384615384613 80.00000000000028 507.5384615384613 C 86.88231765173786 507.5384615384613 92.46153846153874 513.1176823482622 92.46153846153874 519.9999999999998 z "
                fill="#3366ff" stroke-linecap="square"
                stroke-linejoin="butt" stroke-width="1.6875"
                stroke-miterlimit="10.0" stroke-dashoffset="0.0" stroke="#3366ff"/>
        </g>
        <g latexdraw:type="dot" id="id1267949544" latexdraw:size="27.0"
            latexdraw:dotShape="*" latexdraw:position="513.5294117647061 607.647058823529">
            <path
                d="M 525.9909502262445 607.647058823529 C 525.9909502262445 614.5293764752666 520.4117294164437 620.1085972850675 513.5294117647061 620.1085972850675 C 506.6470941129685 620.1085972850675 501.06787330316763 614.5293764752666 501.06787330316763 607.647058823529 C 501.06787330316763 600.7647411717915 506.6470941129685 595.1855203619906 513.5294117647061 595.1855203619906 C 520.4117294164437 595.1855203619906 525.9909502262445 600.7647411717915 525.9909502262445 607.647058823529 z "
                fill="#3366ff" stroke-linecap="square"
                stroke-linejoin="butt" stroke-width="1.6875"
                stroke-miterlimit="10.0" stroke-dashoffset="0.0" stroke="#3366ff"/>
        </g>
        <g latexdraw:type="rectangle" id="id1710563176">
            <rect x="690.4117647058821" y="602.1764705882354"
                width="53.2941176470589" height="21.529411764706083"
                latexdraw:borderPos="outer" stroke-width="2.0"
                stroke="#66cc00" fill="url(#pattern1710563176)"/>
        </g>
        <g latexdraw:type="text" id="id1609963725" fill="black" latexdraw:position="bl">
            <text x="2.9411764705891983" y="47.647058823528994">\Huge\textbf{\cn{香港，新界，元朗，屯门}}</text>
        </g>
        <g latexdraw:type="text" id="id1466216850" fill="black" latexdraw:position="bl">
            <text x="631.7647058823532" y="48.235294117647015">\Huge\textbf{\cn{珠海，香洲，新湾}}</text>
        </g>
        <g latexdraw:type="bezierCurve" id="id679933328">
            <path
                d="M 1045.5187644045495 62.42473346038912 C 1095.2451899871871 64.40160921489132 1072.003103857449 52.70097426709553 1079.5271725411721 115.32892438203871 C 1087.0512412248952 177.95687449698187 1076.3376672227243 213.52704340975396 1079.00257609343 246.89735484572384 C 1081.6674849641356 280.2676662816937 1080.6704825814827 338.5247610763701 1081.7564427637435 369.13159895966066 C 1082.8424029460043 399.7384368429512 1076.6535942413793 531.2374437294505 1080.6230313623305 550.2548480726828 C 1084.5924684832817 569.272252415915 1066.3824668589177 561.2046094301686 1047.925092178343 562.6480981285476 C 1029.4677174977683 564.0915868269267 1093.4974997920635 126.12185766742081 989.6638422847002 97.7705658534759 C 885.8301847773369 69.41927403953099 995.7923388219119 60.44785770588692 1045.5187644045495 62.42473346038912 z "
                stroke-width="2.0" stroke="#3366ff"
                fill="url(#pattern679933328)" latexdraw:rotationAngle="0.0"/>
        </g>
        <g latexdraw:type="bezierCurve" id="id2143612848">
            <path
                d="M 11.176470588234759 149.50879320800487 C 6.793730891425605 190.6755344698097 6.690224688463033 274.6340438915792 40.43884220354759 285.29411764705935 C 74.18745971863214 295.9541914025395 164.4407897149582 273.0345399276329 179.41176470588184 213.04426925409376 C 194.38273969680546 153.0539985805546 101.04086774851089 90.07183846136266 67.29225023342599 79.41176470588235 C 33.54363271834109 68.75169095040204 15.559210285043912 108.34205194620006 11.176470588234759 149.50879320800487 z "
                stroke-width="2.0" stroke="#66cc00"
                fill="url(#pattern2143612848)" latexdraw:rotationAngle="0.0"/>
        </g>
        <g latexdraw:type="rectangle" id="id317421493">
            <rect x="691.5882352941171" y="571.588235294118"
                width="52.11764705882388" height="23.882352941176464"
                latexdraw:borderPos="outer" stroke-width="2.0"
                stroke="#3366ff" fill="url(#pattern317421493)"/>
        </g>
        <g latexdraw:type="joinedLines" id="id1079521349">
            <polyline
                points="479.9999999999999,581.1764705882355 538.8235294117645,581.1764705882355 "
                stroke-width="4.0" stroke="black" latexdraw:rotationAngle="0.0"/>
        </g>
        <g latexdraw:type="joinedLines" id="id1974126248">
            <polyline
                points="641.7647058823532,564.1176470588239 640.5882352941177,513.5294117647059 "
                stroke-width="10.0" stroke="black"
                latexdraw:rotationAngle="0.0" marker-start="url(#arrow0-1974126248)"/>
        </g>
        <g latexdraw:type="text" id="id902991175" fill="black" latexdraw:position="bl">
            <text x="566.470588235295" y="555.8823529411773">\cn{到珠海}</text>
        </g>
        <g latexdraw:type="text" id="id1927693355" fill="black" latexdraw:position="bl">
            <text x="611.7647058823541" y="74.1176470588241">\cn{到广州}</text>
        </g>
        <g latexdraw:type="bezierCurve" id="id1239036676">
            <path
                d="M 586.4705882352941 302.94117647058823 C 469.6070665571091 337.25170357377897 609.913409948321 444.2137657122493 658.2352941176471 419.4117647058824 C 706.5571782869731 394.60976369951544 988.4305959688783 412.54582122080075 994.7058823529412 362.94117647058823 C 1000.9811687370042 313.3365317203757 927.7336488752082 305.1979989936332 906.4705882352941 220.58823529411765 C 885.20752759538 135.97847159460213 703.3341099134792 268.6306493673975 586.4705882352941 302.94117647058823 z "
                stroke-width="2.0" stroke="#66cc00"
                fill="url(#pattern1239036676)" latexdraw:rotationAngle="0.0"/>
        </g>
        <g latexdraw:type="circle" id="id173627404">
            <circle cx="927.0588235294133" cy="182.35294117647004"
                r="34.79411764705833" latexdraw:borderPos="outer"
                stroke-width="1.0" stroke="#ff3333" fill="url(#pattern173627404)"/>
        </g>
        <g latexdraw:type="text" id="id587784942" fill="black" latexdraw:position="bl">
            <text x="913.5294117647068" y="246.47058823529477">\color{red}\cn{唐家}</text>
        </g>
        <g latexdraw:type="bezierCurve" id="id1666275259">
            <path
                d="M 676.5417759460471 545.294117647059 C 716.8255258548644 566.2223873518863 1047.3209100644883 587.5640055997964 1040.5882352941176 473.92375436638616 C 1033.8555605237468 360.28350313297597 710.5845926029668 412.06318150543325 649.9999999999999 434.70588235294053 C 589.4154073970329 457.3485832004478 636.2580260372298 524.3658479422318 676.5417759460471 545.294117647059 z "
                stroke-width="2.0" stroke="red"
                fill="url(#pattern1666275259)" latexdraw:rotationAngle="0.0"/>
        </g>
        <g latexdraw:type="dot" id="id696475777" latexdraw:size="27.0"
            latexdraw:dotShape="*" latexdraw:position="630.0000000000002 478.2352941176471">
            <path
                d="M 642.4615384615387 478.2352941176471 C 642.4615384615387 485.11761176938467 636.8823176517378 490.6968325791855 630.0000000000002 490.6968325791855 C 623.1176823482626 490.6968325791855 617.5384615384618 485.11761176938467 617.5384615384618 478.2352941176471 C 617.5384615384618 471.3529764659095 623.1176823482626 465.7737556561086 630.0000000000002 465.7737556561086 C 636.8823176517378 465.7737556561086 642.4615384615387 471.3529764659095 642.4615384615387 478.2352941176471 z "
                fill="black" stroke-linecap="square"
                stroke-linejoin="butt" stroke-width="1.6875"
                stroke-miterlimit="10.0" stroke-dashoffset="0.0" stroke="black"/>
        </g>
        <g latexdraw:type="bezierCurve" id="id612209238">
            <path
                d="M 629.3186274509801 261.76470588235225 C 688.264529945195 278.7274792673061 894.5997688271787 155.47754926879117 886.4705882352941 125.00667339431578 C 878.3414076434096 94.5357975198404 626.9218705309193 74.75650795877183 591.1764705882351 94.70588235294065 C 555.431070645551 114.65525674710946 570.3727249567652 244.8019324973984 629.3186274509801 261.76470588235225 z "
                stroke-width="2.0" stroke="red"
                fill="url(#pattern612209238)" latexdraw:rotationAngle="0.0"/>
        </g>
        <g latexdraw:type="bezierCurve" id="id1526923177">
            <path
                d="M 692.3529411764706 98.23529411764706 C 717.0588235294117 173.52941176470586 698.1432256033718 209.9846552476212 655.8823529411765 251.17647058823584 C 613.6214802789812 292.36828592885047 607.6470588235294 295.88235294117646 600.5882352941177 338.2352941176471 C 593.529411764706 380.5882352941177 599.4117647058823 417.05882352941177 604.1176470588235 431.1764705882353 C 608.8235294117648 445.29411764705884 620.5882352941177 461.7647058823529 620.5882352941177 461.7647058823529 C 620.5882352941177 461.7647058823529 641.7647058823529 484.11764705882354 640.5882352941177 528.8235294117648 "
                stroke-width="10.0" stroke="black" fill="none" latexdraw:rotationAngle="0.0"/>
        </g>
        <g latexdraw:type="dot" id="id420580822" latexdraw:size="27.0"
            latexdraw:dotShape="*" latexdraw:position="698.8235294117646 116.47058823529392">
            <path
                d="M 711.2850678733031 116.47058823529392 C 711.2850678733031 123.3529058870315 705.7058470635022 128.93212669683237 698.8235294117646 128.93212669683237 C 691.941211760027 128.93212669683237 686.3619909502262 123.3529058870315 686.3619909502262 116.47058823529392 C 686.3619909502262 109.58827058355634 691.941211760027 104.00904977375545 698.8235294117646 104.00904977375545 C 705.7058470635022 104.00904977375545 711.2850678733031 109.58827058355634 711.2850678733031 116.47058823529392 z "
                fill="black" stroke-linecap="square"
                stroke-linejoin="butt" stroke-width="1.6875"
                stroke-miterlimit="10.0" stroke-dashoffset="0.0" stroke="black"/>
        </g>
        <g latexdraw:type="dot" id="id70200866" latexdraw:size="27.0"
            latexdraw:dotShape="*" latexdraw:position="657.6470588235295 249.4117647058822">
            <path
                d="M 670.108597285068 249.4117647058822 C 670.108597285068 256.2940823576198 664.5293764752671 261.87330316742066 657.6470588235295 261.87330316742066 C 650.7647411717919 261.87330316742066 645.185520361991 256.2940823576198 645.185520361991 249.4117647058822 C 645.185520361991 242.52944705414464 650.7647411717919 236.95022624434375 657.6470588235295 236.95022624434375 C 664.5293764752671 236.95022624434375 670.108597285068 242.52944705414464 670.108597285068 249.4117647058822 z "
                fill="black" stroke-linecap="square"
                stroke-linejoin="butt" stroke-width="1.6875"
                stroke-miterlimit="10.0" stroke-dashoffset="0.0" stroke="black"/>
        </g>
        <g latexdraw:type="joinedLines" id="id1925478487">
            <polyline
                points="681.0470988001774,58.90491383456883 698.9529011998239,121.09508616543162 "
                stroke-width="10.0" stroke="black"
                latexdraw:rotationAngle="0.0" marker-start="url(#arrow0-1925478487)"/>
        </g>
        <g latexdraw:type="bezierCurve" id="id615120666">
            <path
                d="M 585.8823529411765 476.47058823529414 C 622.7161196731043 437.9428268048939 620.426018091754 448.84334121920006 669.4117647058823 438.8235294117647 C 718.3975113200106 428.80371760432934 780.8778829158249 445.3740921490049 802.3529411764706 445.88235294117646 C 823.8279994371163 446.390613733348 888.4921808330781 451.041030498762 908.2352941176471 452.94117647058823 C 927.978407402216 454.8413224424145 989.0407142041863 479.6645420069131 995.2941176470589 414.11764705882354 "
                stroke-width="4.0" stroke="black" fill="none" latexdraw:rotationAngle="0.0"/>
        </g>
        <g latexdraw:type="bezierCurve" id="id1668602219">
            <path
                d="M 32.35294117647022 387.64705882352933 C 73.11125171960066 465.2528184750756 48.57901531089272 417.47128896130715 60.58823529411728 471.17647058823525 C 72.59745527734185 524.8816522151633 53.362728167868546 536.4790017668324 101.76470588235257 533.5294117647059 C 150.1666835968366 530.5798217625793 386.6122559238499 537.4206144115733 428.82352941176435 554.7058823529411 C 471.0348028996788 571.9911502943089 309.71986763598335 559.5454529180224 189.99999999999963 562.9411764705882 C 70.28013236401591 566.3369000231539 9.174570730723374 560.1454339453945 5.2941176470584494 566.470588235294 C 1.4136645633935245 572.7957425251935 2.393303491432775 481.0099507909816 2.9411764705878607 406.47058823529403 C 3.4890494497429465 331.9312256796065 -8.405369366660224 310.04129917198304 32.35294117647022 387.64705882352933 z "
                stroke-width="2.0" stroke="#3366ff"
                fill="url(#pattern1668602219)" latexdraw:rotationAngle="0.0"/>
        </g>
        <g latexdraw:type="dot" id="id90743265" latexdraw:size="27.0"
            latexdraw:dotShape="*" latexdraw:position="1043.529411764706 464.70588235294076">
            <path
                d="M 1055.9909502262444 464.70588235294076 C 1055.9909502262444 471.58820000467836 1050.4117294164434 477.1674208144792 1043.529411764706 477.1674208144792 C 1036.6470941129685 477.1674208144792 1031.0678733031675 471.58820000467836 1031.0678733031675 464.70588235294076 C 1031.0678733031675 457.82356470120317 1036.6470941129685 452.2443438914023 1043.529411764706 452.2443438914023 C 1050.4117294164434 452.2443438914023 1055.9909502262444 457.82356470120317 1055.9909502262444 464.70588235294076 z "
                fill="#3366ff" stroke-linecap="square"
                stroke-linejoin="butt" stroke-width="1.6875"
                stroke-miterlimit="10.0" stroke-dashoffset="0.0" stroke="#3366ff"/>
        </g>
        <g latexdraw:type="bezierCurve" id="id1784032674">
            <path
                d="M 960.0 107.05882352941126 C 887.9748850291784 128.3050817182753 1008.3042229779387 169.18051262225822 964.1745730550288 239.0549662487942 C 920.0449231321188 308.92941987533015 1013.647949252236 278.99215544771374 1024.705882352941 243.52941176470534 C 1035.763815453646 208.06666808169695 1032.0251149708215 85.81256534054722 960.0 107.05882352941126 z "
                stroke-width="2.0" stroke="red"
                fill="url(#pattern1784032674)" latexdraw:rotationAngle="0.0"/>
        </g>
        <g latexdraw:type="circle" id="id1380654289">
            <circle cx="586.4705882352955" cy="472.35294117647027"
                r="20.67647058823468" latexdraw:borderPos="outer"
                stroke-width="1.0" stroke="#ff3333" fill="url(#pattern1380654289)"/>
        </g>
        <g latexdraw:type="text" id="id853763596" fill="black" latexdraw:position="bl">
            <text x="87.05882352941177" y="589.4117647058825">Dense city</text>
        </g>
        <g latexdraw:type="text" id="id1311109375" fill="black" latexdraw:position="bl">
            <text x="90.00000000000051" y="615.8823529411767">Sparse city</text>
        </g>
        <g latexdraw:type="text" id="id1244410608" fill="black" latexdraw:position="bl">
            <text x="301.1764705882352" y="587.0588235294123">Station</text>
        </g>
        <g latexdraw:type="text" id="id830043825" fill="black" latexdraw:position="bl">
            <text x="298.23529411764736" y="620.5882352941177">Heavy rail</text>
        </g>
        <g latexdraw:type="text" id="id1320616979" fill="black" latexdraw:position="bl">
            <text x="549.411764705882" y="591.7647058823533">Light rail</text>
        </g>
        <g latexdraw:type="text" id="id848294034" fill="black" latexdraw:position="bl">
            <text x="551.1764705882351" y="615.8823529411771">Harbour</text>
        </g>
        <g latexdraw:type="text" id="id429617647" fill="black" latexdraw:position="bl">
            <text x="750.588235294118" y="589.411764705883">Delta</text>
        </g>
        <g latexdraw:type="text" id="id1379694080" fill="black" latexdraw:position="bl">
            <text x="751.1764705882351" y="620.5882352941181">Natural space</text>
        </g>
        <g latexdraw:type="joinedLines" id="id1991737163">
            <polyline
                points="965.8823529411769,583.5294117647056 1054.117647058824,583.5294117647056 "
                stroke-width="4.0" stroke="black"
                latexdraw:rotationAngle="0.0"
                marker-start="url(#arrow0-1991737163)" marker-end="url(#arrow1-1991737163)"/>
        </g>
        <g latexdraw:type="text" id="id1940591150" fill="black" latexdraw:position="bl">
            <text x="992.3529411764707" y="601.7647058823533">5km</text>
        </g>
    </g>
    <defs>
        <pattern latexdraw:type="hlines"
            latexdraw:rotationAngle="1.5707963267948966"
            latexdraw:size="10.06" patternUnits="userSpaceOnUse"
            id="pattern375184776" x="0" y="0" width="240" height="504">
            <g stroke="#ff0033" stroke-width="1.4111111111111112" stroke-dasharray="none">
                <path d="M 134.7058823529412 427.64705882352945 L 134.7058823529412 504.11764705882354 M 146.1769934640523 427.64705882352945 L 146.1769934640523 504.11764705882354 M 157.6481045751634 427.64705882352945 L 157.6481045751634 504.11764705882354 M 169.1192156862745 427.64705882352945 L 169.1192156862745 504.11764705882354 M 180.5903267973856 427.64705882352945 L 180.5903267973856 504.11764705882354 M 192.06143790849669 427.64705882352945 L 192.06143790849669 504.11764705882354 M 203.53254901960779 427.64705882352945 L 203.53254901960779 504.11764705882354 M 215.00366013071888 427.64705882352945 L 215.00366013071888 504.11764705882354 M 226.47477124182998 427.64705882352945 L 226.47477124182998 504.11764705882354 M 237.94588235294108 427.64705882352945 L 237.94588235294108 504.11764705882354 "/>
            </g>
        </pattern>
        <pattern latexdraw:type="hlines"
            latexdraw:rotationAngle="1.5707963267948966"
            latexdraw:size="10.06" patternUnits="userSpaceOnUse"
            id="pattern507346784" x="0" y="0" width="124" height="409">
            <g stroke="#ff0033" stroke-width="1.4111111111111112" stroke-dasharray="none">
                <path d="M 56.470588235294116 292.94117647058823 L 56.470588235294116 409.4117647058824 M 67.94169934640523 292.94117647058823 L 67.94169934640523 409.4117647058824 M 79.41281045751634 292.94117647058823 L 79.41281045751634 409.4117647058824 M 90.88392156862746 292.94117647058823 L 90.88392156862746 409.4117647058824 M 102.35503267973857 292.94117647058823 L 102.35503267973857 409.4117647058824 M 113.82614379084968 292.94117647058823 L 113.82614379084968 409.4117647058824 "/>
            </g>
        </pattern>
        <pattern latexdraw:type="hlines"
            latexdraw:rotationAngle="1.5707963267948966"
            latexdraw:size="10.06" patternUnits="userSpaceOnUse"
            id="pattern1936184565" x="0" y="0" width="257" height="151">
            <g stroke="#ff0033" stroke-width="1.4111111111111112" stroke-dasharray="none">
                <path d="M 178.82352941176472 55.294117647058556 L 178.82352941176472 151.76470588235296 M 190.29464052287582 55.294117647058556 L 190.29464052287582 151.76470588235296 M 201.76575163398692 55.294117647058556 L 201.76575163398692 151.76470588235296 M 213.23686274509802 55.294117647058556 L 213.23686274509802 151.76470588235296 M 224.70797385620912 55.294117647058556 L 224.70797385620912 151.76470588235296 M 236.17908496732022 55.294117647058556 L 236.17908496732022 151.76470588235296 M 247.65019607843132 55.294117647058556 L 247.65019607843132 151.76470588235296 "/>
            </g>
        </pattern>
        <pattern latexdraw:type="crosshatch"
            latexdraw:rotationAngle="0.0"
            latexdraw:size="7.055555555555555"
            patternUnits="userSpaceOnUse" id="pattern718413125" x="0"
            y="0" width="484" height="277">
            <g stroke="#ff3333" stroke-width="1.4111111111111112" stroke-dasharray="none">
                <path d="M 391.1764705882372 184.70588235294133 L 391.1764705882372 277.6470588235285 M 399.6431372549038 184.70588235294133 L 399.6431372549038 277.6470588235285 M 408.10980392157046 184.70588235294133 L 408.10980392157046 277.6470588235285 M 416.5764705882371 184.70588235294133 L 416.5764705882371 277.6470588235285 M 425.04313725490374 184.70588235294133 L 425.04313725490374 277.6470588235285 M 433.5098039215704 184.70588235294133 L 433.5098039215704 277.6470588235285 M 441.976470588237 184.70588235294133 L 441.976470588237 277.6470588235285 M 450.44313725490366 184.70588235294133 L 450.44313725490366 277.6470588235285 M 458.9098039215703 184.70588235294133 L 458.9098039215703 277.6470588235285 M 467.37647058823694 184.70588235294133 L 467.37647058823694 277.6470588235285 M 475.8431372549036 184.70588235294133 L 475.8431372549036 277.6470588235285 M 391.1764705882372 184.70588235294133 L 484.11764705882433 184.70588235294133 M 391.1764705882372 193.172549019608 L 484.11764705882433 193.172549019608 M 391.1764705882372 201.63921568627467 L 484.11764705882433 201.63921568627467 M 391.1764705882372 210.10588235294134 L 484.11764705882433 210.10588235294134 M 391.1764705882372 218.572549019608 L 484.11764705882433 218.572549019608 M 391.1764705882372 227.03921568627467 L 484.11764705882433 227.03921568627467 M 391.1764705882372 235.50588235294134 L 484.11764705882433 235.50588235294134 M 391.1764705882372 243.972549019608 L 484.11764705882433 243.972549019608 M 391.1764705882372 252.43921568627468 L 484.11764705882433 252.43921568627468 M 391.1764705882372 260.9058823529413 L 484.11764705882433 260.9058823529413 M 391.1764705882372 269.37254901960796 L 484.11764705882433 269.37254901960796 "/>
            </g>
        </pattern>
        <pattern latexdraw:type="crosshatch"
            latexdraw:rotationAngle="0.0"
            latexdraw:size="7.055555555555555"
            patternUnits="userSpaceOnUse" id="pattern749480761" x="0"
            y="0" width="283" height="211">
            <g stroke="#ff3333" stroke-width="1.4111111111111112" stroke-dasharray="none">
                <path d="M 218.82352941176555 146.47058823529352 L 218.82352941176555 211.17647058823496 M 227.29019607843222 146.47058823529352 L 227.29019607843222 211.17647058823496 M 235.75686274509889 146.47058823529352 L 235.75686274509889 211.17647058823496 M 244.22352941176555 146.47058823529352 L 244.22352941176555 211.17647058823496 M 252.69019607843222 146.47058823529352 L 252.69019607843222 211.17647058823496 M 261.15686274509886 146.47058823529352 L 261.15686274509886 211.17647058823496 M 269.6235294117655 146.47058823529352 L 269.6235294117655 211.17647058823496 M 278.09019607843214 146.47058823529352 L 278.09019607843214 211.17647058823496 M 218.82352941176555 146.47058823529352 L 283.529411764707 146.47058823529352 M 218.82352941176555 154.9372549019602 L 283.529411764707 154.9372549019602 M 218.82352941176555 163.40392156862686 L 283.529411764707 163.40392156862686 M 218.82352941176555 171.87058823529352 L 283.529411764707 171.87058823529352 M 218.82352941176555 180.3372549019602 L 283.529411764707 180.3372549019602 M 218.82352941176555 188.80392156862686 L 283.529411764707 188.80392156862686 M 218.82352941176555 197.27058823529353 L 283.529411764707 197.27058823529353 M 218.82352941176555 205.7372549019602 L 283.529411764707 205.7372549019602 "/>
            </g>
        </pattern>
        <pattern latexdraw:type="crosshatch"
            latexdraw:rotationAngle="0.0"
            latexdraw:size="7.055555555555555"
            patternUnits="userSpaceOnUse" id="pattern808218810" x="0"
            y="0" width="197" height="341">
            <g stroke="#ff3333" stroke-width="1.4111111111111112" stroke-dasharray="none">
                <path d="M 130.00000000000034 274.11764705882365 L 130.00000000000034 341.176470588235 M 138.466666666667 274.11764705882365 L 138.466666666667 341.176470588235 M 146.93333333333368 274.11764705882365 L 146.93333333333368 341.176470588235 M 155.40000000000035 274.11764705882365 L 155.40000000000035 341.176470588235 M 163.86666666666702 274.11764705882365 L 163.86666666666702 341.176470588235 M 172.33333333333368 274.11764705882365 L 172.33333333333368 341.176470588235 M 180.80000000000035 274.11764705882365 L 180.80000000000035 341.176470588235 M 189.26666666666702 274.11764705882365 L 189.26666666666702 341.176470588235 M 130.00000000000034 274.11764705882365 L 197.0588235294117 274.11764705882365 M 130.00000000000034 282.5843137254903 L 197.0588235294117 282.5843137254903 M 130.00000000000034 291.05098039215693 L 197.0588235294117 291.05098039215693 M 130.00000000000034 299.51764705882357 L 197.0588235294117 299.51764705882357 M 130.00000000000034 307.9843137254902 L 197.0588235294117 307.9843137254902 M 130.00000000000034 316.45098039215685 L 197.0588235294117 316.45098039215685 M 130.00000000000034 324.9176470588235 L 197.0588235294117 324.9176470588235 M 130.00000000000034 333.38431372549013 L 197.0588235294117 333.38431372549013 "/>
            </g>
        </pattern>
        <pattern latexdraw:type="crosshatch"
            latexdraw:rotationAngle="0.0"
            latexdraw:size="7.055555555555555"
            patternUnits="userSpaceOnUse" id="pattern107347019" x="0"
            y="0" width="174" height="458">
            <g stroke="#ff3333" stroke-width="1.4111111111111112" stroke-dasharray="none">
                <path d="M 110.58823529411791 395.2941176470589 L 110.58823529411791 458.823529411765 M 119.05490196078458 395.2941176470589 L 119.05490196078458 458.823529411765 M 127.52156862745124 395.2941176470589 L 127.52156862745124 458.823529411765 M 135.9882352941179 395.2941176470589 L 135.9882352941179 458.823529411765 M 144.45490196078458 395.2941176470589 L 144.45490196078458 458.823529411765 M 152.92156862745125 395.2941176470589 L 152.92156862745125 458.823529411765 M 161.38823529411792 395.2941176470589 L 161.38823529411792 458.823529411765 M 169.8549019607846 395.2941176470589 L 169.8549019607846 458.823529411765 M 110.58823529411791 395.2941176470589 L 174.117647058824 395.2941176470589 M 110.58823529411791 403.76078431372554 L 174.117647058824 403.76078431372554 M 110.58823529411791 412.2274509803922 L 174.117647058824 412.2274509803922 M 110.58823529411791 420.6941176470588 L 174.117647058824 420.6941176470588 M 110.58823529411791 429.16078431372546 L 174.117647058824 429.16078431372546 M 110.58823529411791 437.6274509803921 L 174.117647058824 437.6274509803921 M 110.58823529411791 446.09411764705874 L 174.117647058824 446.09411764705874 M 110.58823529411791 454.5607843137254 L 174.117647058824 454.5607843137254 "/>
            </g>
        </pattern>
        <marker overflow="visible" orient="auto" id="arrow0-707787269">
            <path
                d="M 0.0 0.0 L 3.1704166666666667 1.1322916666666667 L 3.1704166666666667 0.0 L 3.1704166666666667 -1.1322916666666667 z "
                latexdraw:arrSizeNum="2.0" fill="black"/>
        </marker>
        <pattern latexdraw:type="hlines"
            latexdraw:rotationAngle="1.5707963267948966"
            latexdraw:size="10.06" patternUnits="userSpaceOnUse"
            id="pattern409160384" x="0" y="0" width="77" height="623">
            <g stroke="#ff0033" stroke-width="1.4111111111111112" stroke-dasharray="none">
                <path d="M 23.529411764705884 598.8235294117649 L 23.529411764705884 623.5294117647061 M 35.000522875817 598.8235294117649 L 35.000522875817 623.5294117647061 M 46.47163398692811 598.8235294117649 L 46.47163398692811 623.5294117647061 M 57.942745098039225 598.8235294117649 L 57.942745098039225 623.5294117647061 M 69.41385620915034 598.8235294117649 L 69.41385620915034 623.5294117647061 "/>
            </g>
        </pattern>
        <pattern latexdraw:type="crosshatch"
            latexdraw:rotationAngle="1.5707963267948966"
            latexdraw:size="10.06" patternUnits="userSpaceOnUse"
            id="pattern807491495" x="0" y="0" width="78" height="594">
            <g stroke="#ff0033" stroke-width="1.4111111111111112" stroke-dasharray="none">
                <path d="M 23.529411764705856 568.235294117647 L 78.82352941176532 568.235294117647 M 23.529411764705856 579.7064052287581 L 78.82352941176532 579.7064052287581 M 23.529411764705856 591.1775163398692 L 78.82352941176532 591.1775163398692 M 23.529411764705856 568.235294117647 L 23.529411764705856 594.1176470588234 M 35.00052287581697 568.235294117647 L 35.00052287581697 594.1176470588234 M 46.47163398692808 568.235294117647 L 46.47163398692808 594.1176470588234 M 57.9427450980392 568.235294117647 L 57.9427450980392 594.1176470588234 M 69.41385620915031 568.235294117647 L 69.41385620915031 594.1176470588234 "/>
            </g>
        </pattern>
        <pattern latexdraw:type="hlines"
            latexdraw:rotationAngle="1.5707963267948966"
            latexdraw:size="10.06" patternUnits="userSpaceOnUse"
            id="pattern1785887269" x="0" y="0" width="352" height="276">
            <g stroke="#ff0033" stroke-width="1.4111111111111112" stroke-dasharray="none">
                <path d="M 182.35294117647058 207.05882352941177 L 182.35294117647058 276.47058823529414 M 193.82405228758168 207.05882352941177 L 193.82405228758168 276.47058823529414 M 205.29516339869278 207.05882352941177 L 205.29516339869278 276.47058823529414 M 216.76627450980388 207.05882352941177 L 216.76627450980388 276.47058823529414 M 228.23738562091498 207.05882352941177 L 228.23738562091498 276.47058823529414 M 239.70849673202608 207.05882352941177 L 239.70849673202608 276.47058823529414 M 251.17960784313718 207.05882352941177 L 251.17960784313718 276.47058823529414 M 262.6507189542483 207.05882352941177 L 262.6507189542483 276.47058823529414 M 274.1218300653594 207.05882352941177 L 274.1218300653594 276.47058823529414 M 285.5929411764705 207.05882352941177 L 285.5929411764705 276.47058823529414 M 297.0640522875816 207.05882352941177 L 297.0640522875816 276.47058823529414 M 308.5351633986927 207.05882352941177 L 308.5351633986927 276.47058823529414 M 320.0062745098038 207.05882352941177 L 320.0062745098038 276.47058823529414 M 331.4773856209149 207.05882352941177 L 331.4773856209149 276.47058823529414 M 342.948496732026 207.05882352941177 L 342.948496732026 276.47058823529414 "/>
            </g>
        </pattern>
        <pattern latexdraw:type="hlines"
            latexdraw:rotationAngle="1.5707963267948966"
            latexdraw:size="10.06" patternUnits="userSpaceOnUse"
            id="pattern1492050657" x="0" y="0" width="518" height="484">
            <g stroke="#66cc00" stroke-width="1.4111111111111112" stroke-dasharray="none">
                <path d="M 202.35294117647058 261.1764705882353 L 202.35294117647058 484.7058823529412 M 213.82405228758168 261.1764705882353 L 213.82405228758168 484.7058823529412 M 225.29516339869278 261.1764705882353 L 225.29516339869278 484.7058823529412 M 236.76627450980388 261.1764705882353 L 236.76627450980388 484.7058823529412 M 248.23738562091498 261.1764705882353 L 248.23738562091498 484.7058823529412 M 259.7084967320261 261.1764705882353 L 259.7084967320261 484.7058823529412 M 271.1796078431372 261.1764705882353 L 271.1796078431372 484.7058823529412 M 282.6507189542483 261.1764705882353 L 282.6507189542483 484.7058823529412 M 294.1218300653594 261.1764705882353 L 294.1218300653594 484.7058823529412 M 305.5929411764705 261.1764705882353 L 305.5929411764705 484.7058823529412 M 317.0640522875816 261.1764705882353 L 317.0640522875816 484.7058823529412 M 328.5351633986927 261.1764705882353 L 328.5351633986927 484.7058823529412 M 340.0062745098038 261.1764705882353 L 340.0062745098038 484.7058823529412 M 351.4773856209149 261.1764705882353 L 351.4773856209149 484.7058823529412 M 362.948496732026 261.1764705882353 L 362.948496732026 484.7058823529412 M 374.4196078431371 261.1764705882353 L 374.4196078431371 484.7058823529412 M 385.8907189542482 261.1764705882353 L 385.8907189542482 484.7058823529412 M 397.3618300653593 261.1764705882353 L 397.3618300653593 484.7058823529412 M 408.8329411764704 261.1764705882353 L 408.8329411764704 484.7058823529412 M 420.3040522875815 261.1764705882353 L 420.3040522875815 484.7058823529412 M 431.7751633986926 261.1764705882353 L 431.7751633986926 484.7058823529412 M 443.2462745098037 261.1764705882353 L 443.2462745098037 484.7058823529412 M 454.7173856209148 261.1764705882353 L 454.7173856209148 484.7058823529412 M 466.1884967320259 261.1764705882353 L 466.1884967320259 484.7058823529412 M 477.659607843137 261.1764705882353 L 477.659607843137 484.7058823529412 M 489.1307189542481 261.1764705882353 L 489.1307189542481 484.7058823529412 M 500.6018300653592 261.1764705882353 L 500.6018300653592 484.7058823529412 M 512.0729411764703 261.1764705882353 L 512.0729411764703 484.7058823529412 "/>
            </g>
        </pattern>
        <pattern latexdraw:type="hlines"
            latexdraw:rotationAngle="1.5707963267948966"
            latexdraw:size="10.06" patternUnits="userSpaceOnUse"
            id="pattern1710563176" x="0" y="0" width="744" height="624">
            <g stroke="#66cc00" stroke-width="1.4111111111111112" stroke-dasharray="none">
                <path d="M 689.4117647058821 601.1764705882354 L 689.4117647058821 624.7058823529414 M 700.8828758169932 601.1764705882354 L 700.8828758169932 624.7058823529414 M 712.3539869281043 601.1764705882354 L 712.3539869281043 624.7058823529414 M 723.8250980392154 601.1764705882354 L 723.8250980392154 624.7058823529414 M 735.2962091503265 601.1764705882354 L 735.2962091503265 624.7058823529414 "/>
            </g>
        </pattern>
        <pattern latexdraw:type="hlines"
            latexdraw:rotationAngle="1.5707963267948966"
            latexdraw:size="10.06" patternUnits="userSpaceOnUse"
            id="pattern679933328" x="0" y="0" width="1081" height="562">
            <g stroke="#3366ff" stroke-width="1.4111111111111112" stroke-dasharray="none">
                <path d="M 989.6638422847002 62.42473346038912 L 989.6638422847002 562.6480981285476 M 1001.1349533958113 62.42473346038912 L 1001.1349533958113 562.6480981285476 M 1012.6060645069224 62.42473346038912 L 1012.6060645069224 562.6480981285476 M 1024.0771756180336 62.42473346038912 L 1024.0771756180336 562.6480981285476 M 1035.5482867291448 62.42473346038912 L 1035.5482867291448 562.6480981285476 M 1047.019397840256 62.42473346038912 L 1047.019397840256 562.6480981285476 M 1058.4905089513672 62.42473346038912 L 1058.4905089513672 562.6480981285476 M 1069.9616200624785 62.42473346038912 L 1069.9616200624785 562.6480981285476 M 1081.4327311735897 62.42473346038912 L 1081.4327311735897 562.6480981285476 "/>
            </g>
        </pattern>
        <pattern latexdraw:type="hlines"
            latexdraw:rotationAngle="1.5707963267948966"
            latexdraw:size="10.06" patternUnits="userSpaceOnUse"
            id="pattern2143612848" x="0" y="0" width="179" height="285">
            <g stroke="#66cc00" stroke-width="1.4111111111111112" stroke-dasharray="none">
                <path d="M 11.176470588234759 79.41176470588235 L 11.176470588234759 285.29411764705935 M 22.64758169934587 79.41176470588235 L 22.64758169934587 285.29411764705935 M 34.118692810456984 79.41176470588235 L 34.118692810456984 285.29411764705935 M 45.5898039215681 79.41176470588235 L 45.5898039215681 285.29411764705935 M 57.06091503267921 79.41176470588235 L 57.06091503267921 285.29411764705935 M 68.53202614379032 79.41176470588235 L 68.53202614379032 285.29411764705935 M 80.00313725490143 79.41176470588235 L 80.00313725490143 285.29411764705935 M 91.47424836601255 79.41176470588235 L 91.47424836601255 285.29411764705935 M 102.94535947712366 79.41176470588235 L 102.94535947712366 285.29411764705935 M 114.41647058823477 79.41176470588235 L 114.41647058823477 285.29411764705935 M 125.88758169934589 79.41176470588235 L 125.88758169934589 285.29411764705935 M 137.358692810457 79.41176470588235 L 137.358692810457 285.29411764705935 M 148.8298039215681 79.41176470588235 L 148.8298039215681 285.29411764705935 M 160.3009150326792 79.41176470588235 L 160.3009150326792 285.29411764705935 M 171.7720261437903 79.41176470588235 L 171.7720261437903 285.29411764705935 "/>
            </g>
        </pattern>
        <pattern latexdraw:type="hlines"
            latexdraw:rotationAngle="1.5707963267948966"
            latexdraw:size="10.06" patternUnits="userSpaceOnUse"
            id="pattern317421493" x="0" y="0" width="744" height="596">
            <g stroke="#3366ff" stroke-width="1.4111111111111112" stroke-dasharray="none">
                <path d="M 690.5882352941171 570.588235294118 L 690.5882352941171 596.4705882352945 M 702.0593464052282 570.588235294118 L 702.0593464052282 596.4705882352945 M 713.5304575163393 570.588235294118 L 713.5304575163393 596.4705882352945 M 725.0015686274504 570.588235294118 L 725.0015686274504 596.4705882352945 M 736.4726797385615 570.588235294118 L 736.4726797385615 596.4705882352945 "/>
            </g>
        </pattern>
        <marker overflow="visible" orient="auto" id="arrow0-1974126248">
            <path
                d="M 0.0 0.0 L 3.1704166666666667 1.1322916666666667 L 3.1704166666666667 0.0 L 3.1704166666666667 -1.1322916666666667 z "
                latexdraw:arrSizeNum="2.0" fill="black"/>
        </marker>
        <pattern latexdraw:type="hlines"
            latexdraw:rotationAngle="1.5707963267948966"
            latexdraw:size="10.06" patternUnits="userSpaceOnUse"
            id="pattern1239036676" x="0" y="0" width="994" height="419">
            <g stroke="#66cc00" stroke-width="1.4111111111111112" stroke-dasharray="none">
                <path d="M 586.4705882352941 220.58823529411765 L 586.4705882352941 419.4117647058824 M 597.9416993464052 220.58823529411765 L 597.9416993464052 419.4117647058824 M 609.4128104575163 220.58823529411765 L 609.4128104575163 419.4117647058824 M 620.8839215686274 220.58823529411765 L 620.8839215686274 419.4117647058824 M 632.3550326797385 220.58823529411765 L 632.3550326797385 419.4117647058824 M 643.8261437908496 220.58823529411765 L 643.8261437908496 419.4117647058824 M 655.2972549019607 220.58823529411765 L 655.2972549019607 419.4117647058824 M 666.7683660130718 220.58823529411765 L 666.7683660130718 419.4117647058824 M 678.2394771241829 220.58823529411765 L 678.2394771241829 419.4117647058824 M 689.710588235294 220.58823529411765 L 689.710588235294 419.4117647058824 M 701.1816993464051 220.58823529411765 L 701.1816993464051 419.4117647058824 M 712.6528104575162 220.58823529411765 L 712.6528104575162 419.4117647058824 M 724.1239215686273 220.58823529411765 L 724.1239215686273 419.4117647058824 M 735.5950326797384 220.58823529411765 L 735.5950326797384 419.4117647058824 M 747.0661437908495 220.58823529411765 L 747.0661437908495 419.4117647058824 M 758.5372549019606 220.58823529411765 L 758.5372549019606 419.4117647058824 M 770.0083660130717 220.58823529411765 L 770.0083660130717 419.4117647058824 M 781.4794771241828 220.58823529411765 L 781.4794771241828 419.4117647058824 M 792.9505882352939 220.58823529411765 L 792.9505882352939 419.4117647058824 M 804.421699346405 220.58823529411765 L 804.421699346405 419.4117647058824 M 815.8928104575161 220.58823529411765 L 815.8928104575161 419.4117647058824 M 827.3639215686272 220.58823529411765 L 827.3639215686272 419.4117647058824 M 838.8350326797383 220.58823529411765 L 838.8350326797383 419.4117647058824 M 850.3061437908494 220.58823529411765 L 850.3061437908494 419.4117647058824 M 861.7772549019605 220.58823529411765 L 861.7772549019605 419.4117647058824 M 873.2483660130716 220.58823529411765 L 873.2483660130716 419.4117647058824 M 884.7194771241827 220.58823529411765 L 884.7194771241827 419.4117647058824 M 896.1905882352938 220.58823529411765 L 896.1905882352938 419.4117647058824 M 907.6616993464049 220.58823529411765 L 907.6616993464049 419.4117647058824 M 919.132810457516 220.58823529411765 L 919.132810457516 419.4117647058824 M 930.6039215686271 220.58823529411765 L 930.6039215686271 419.4117647058824 M 942.0750326797382 220.58823529411765 L 942.0750326797382 419.4117647058824 M 953.5461437908493 220.58823529411765 L 953.5461437908493 419.4117647058824 M 965.0172549019604 220.58823529411765 L 965.0172549019604 419.4117647058824 M 976.4883660130715 220.58823529411765 L 976.4883660130715 419.4117647058824 M 987.9594771241826 220.58823529411765 L 987.9594771241826 419.4117647058824 "/>
            </g>
        </pattern>
        <pattern latexdraw:type="crosshatch"
            latexdraw:rotationAngle="0.0"
            latexdraw:size="7.055555555555555"
            patternUnits="userSpaceOnUse" id="pattern173627404" x="0"
            y="0" width="962" height="217">
            <g stroke="#ff3333" stroke-width="1.4111111111111112" stroke-dasharray="none">
                <path d="M 891.764705882355 147.0588235294117 L 891.764705882355 217.64705882352837 M 900.2313725490217 147.0588235294117 L 900.2313725490217 217.64705882352837 M 908.6980392156884 147.0588235294117 L 908.6980392156884 217.64705882352837 M 917.1647058823551 147.0588235294117 L 917.1647058823551 217.64705882352837 M 925.6313725490218 147.0588235294117 L 925.6313725490218 217.64705882352837 M 934.0980392156885 147.0588235294117 L 934.0980392156885 217.64705882352837 M 942.5647058823552 147.0588235294117 L 942.5647058823552 217.64705882352837 M 951.0313725490219 147.0588235294117 L 951.0313725490219 217.64705882352837 M 959.4980392156886 147.0588235294117 L 959.4980392156886 217.64705882352837 M 891.764705882355 147.0588235294117 L 962.3529411764716 147.0588235294117 M 891.764705882355 155.52549019607838 L 962.3529411764716 155.52549019607838 M 891.764705882355 163.99215686274505 L 962.3529411764716 163.99215686274505 M 891.764705882355 172.45882352941172 L 962.3529411764716 172.45882352941172 M 891.764705882355 180.92549019607839 L 962.3529411764716 180.92549019607839 M 891.764705882355 189.39215686274505 L 962.3529411764716 189.39215686274505 M 891.764705882355 197.85882352941172 L 962.3529411764716 197.85882352941172 M 891.764705882355 206.3254901960784 L 962.3529411764716 206.3254901960784 M 891.764705882355 214.79215686274506 L 962.3529411764716 214.79215686274506 "/>
            </g>
        </pattern>
        <pattern latexdraw:type="hlines"
            latexdraw:rotationAngle="1.5707963267948966"
            latexdraw:size="10.06" patternUnits="userSpaceOnUse"
            id="pattern1666275259" x="0" y="0" width="1040" height="545">
            <g stroke="#ff0033" stroke-width="1.4111111111111112" stroke-dasharray="none">
                <path d="M 649.9999999999999 434.70588235294053 L 649.9999999999999 545.294117647059 M 661.471111111111 434.70588235294053 L 661.471111111111 545.294117647059 M 672.9422222222221 434.70588235294053 L 672.9422222222221 545.294117647059 M 684.4133333333332 434.70588235294053 L 684.4133333333332 545.294117647059 M 695.8844444444443 434.70588235294053 L 695.8844444444443 545.294117647059 M 707.3555555555554 434.70588235294053 L 707.3555555555554 545.294117647059 M 718.8266666666665 434.70588235294053 L 718.8266666666665 545.294117647059 M 730.2977777777776 434.70588235294053 L 730.2977777777776 545.294117647059 M 741.7688888888887 434.70588235294053 L 741.7688888888887 545.294117647059 M 753.2399999999998 434.70588235294053 L 753.2399999999998 545.294117647059 M 764.7111111111109 434.70588235294053 L 764.7111111111109 545.294117647059 M 776.182222222222 434.70588235294053 L 776.182222222222 545.294117647059 M 787.6533333333331 434.70588235294053 L 787.6533333333331 545.294117647059 M 799.1244444444442 434.70588235294053 L 799.1244444444442 545.294117647059 M 810.5955555555553 434.70588235294053 L 810.5955555555553 545.294117647059 M 822.0666666666664 434.70588235294053 L 822.0666666666664 545.294117647059 M 833.5377777777775 434.70588235294053 L 833.5377777777775 545.294117647059 M 845.0088888888886 434.70588235294053 L 845.0088888888886 545.294117647059 M 856.4799999999997 434.70588235294053 L 856.4799999999997 545.294117647059 M 867.9511111111108 434.70588235294053 L 867.9511111111108 545.294117647059 M 879.4222222222219 434.70588235294053 L 879.4222222222219 545.294117647059 M 890.893333333333 434.70588235294053 L 890.893333333333 545.294117647059 M 902.3644444444441 434.70588235294053 L 902.3644444444441 545.294117647059 M 913.8355555555552 434.70588235294053 L 913.8355555555552 545.294117647059 M 925.3066666666663 434.70588235294053 L 925.3066666666663 545.294117647059 M 936.7777777777774 434.70588235294053 L 936.7777777777774 545.294117647059 M 948.2488888888885 434.70588235294053 L 948.2488888888885 545.294117647059 M 959.7199999999996 434.70588235294053 L 959.7199999999996 545.294117647059 M 971.1911111111107 434.70588235294053 L 971.1911111111107 545.294117647059 M 982.6622222222218 434.70588235294053 L 982.6622222222218 545.294117647059 M 994.1333333333329 434.70588235294053 L 994.1333333333329 545.294117647059 M 1005.604444444444 434.70588235294053 L 1005.604444444444 545.294117647059 M 1017.0755555555551 434.70588235294053 L 1017.0755555555551 545.294117647059 M 1028.5466666666662 434.70588235294053 L 1028.5466666666662 545.294117647059 M 1040.0177777777774 434.70588235294053 L 1040.0177777777774 545.294117647059 "/>
            </g>
        </pattern>
        <pattern latexdraw:type="hlines"
            latexdraw:rotationAngle="1.5707963267948966"
            latexdraw:size="10.06" patternUnits="userSpaceOnUse"
            id="pattern612209238" x="0" y="0" width="886" height="261">
            <g stroke="#ff0033" stroke-width="1.4111111111111112" stroke-dasharray="none">
                <path d="M 591.1764705882351 94.70588235294065 L 591.1764705882351 261.76470588235225 M 602.6475816993462 94.70588235294065 L 602.6475816993462 261.76470588235225 M 614.1186928104573 94.70588235294065 L 614.1186928104573 261.76470588235225 M 625.5898039215684 94.70588235294065 L 625.5898039215684 261.76470588235225 M 637.0609150326795 94.70588235294065 L 637.0609150326795 261.76470588235225 M 648.5320261437906 94.70588235294065 L 648.5320261437906 261.76470588235225 M 660.0031372549017 94.70588235294065 L 660.0031372549017 261.76470588235225 M 671.4742483660128 94.70588235294065 L 671.4742483660128 261.76470588235225 M 682.9453594771239 94.70588235294065 L 682.9453594771239 261.76470588235225 M 694.416470588235 94.70588235294065 L 694.416470588235 261.76470588235225 M 705.8875816993461 94.70588235294065 L 705.8875816993461 261.76470588235225 M 717.3586928104572 94.70588235294065 L 717.3586928104572 261.76470588235225 M 728.8298039215683 94.70588235294065 L 728.8298039215683 261.76470588235225 M 740.3009150326794 94.70588235294065 L 740.3009150326794 261.76470588235225 M 751.7720261437905 94.70588235294065 L 751.7720261437905 261.76470588235225 M 763.2431372549016 94.70588235294065 L 763.2431372549016 261.76470588235225 M 774.7142483660127 94.70588235294065 L 774.7142483660127 261.76470588235225 M 786.1853594771238 94.70588235294065 L 786.1853594771238 261.76470588235225 M 797.6564705882349 94.70588235294065 L 797.6564705882349 261.76470588235225 M 809.127581699346 94.70588235294065 L 809.127581699346 261.76470588235225 M 820.5986928104571 94.70588235294065 L 820.5986928104571 261.76470588235225 M 832.0698039215682 94.70588235294065 L 832.0698039215682 261.76470588235225 M 843.5409150326793 94.70588235294065 L 843.5409150326793 261.76470588235225 M 855.0120261437904 94.70588235294065 L 855.0120261437904 261.76470588235225 M 866.4831372549015 94.70588235294065 L 866.4831372549015 261.76470588235225 M 877.9542483660126 94.70588235294065 L 877.9542483660126 261.76470588235225 "/>
            </g>
        </pattern>
        <marker overflow="visible" orient="auto" id="arrow0-1925478487">
            <path
                d="M 0.0 0.0 L 3.1704166666666667 1.1322916666666667 L 3.1704166666666667 0.0 L 3.1704166666666667 -1.1322916666666667 z "
                latexdraw:arrSizeNum="2.0" fill="black"/>
        </marker>
        <pattern latexdraw:type="hlines"
            latexdraw:rotationAngle="1.5707963267948966"
            latexdraw:size="10.06" patternUnits="userSpaceOnUse"
            id="pattern1668602219" x="0" y="0" width="428" height="566">
            <g stroke="#3366ff" stroke-width="1.4111111111111112" stroke-dasharray="none">
                <path d="M 2.9411764705878607 387.64705882352933 L 2.9411764705878607 566.470588235294 M 14.412287581698973 387.64705882352933 L 14.412287581698973 566.470588235294 M 25.883398692810083 387.64705882352933 L 25.883398692810083 566.470588235294 M 37.3545098039212 387.64705882352933 L 37.3545098039212 566.470588235294 M 48.82562091503231 387.64705882352933 L 48.82562091503231 566.470588235294 M 60.296732026143424 387.64705882352933 L 60.296732026143424 566.470588235294 M 71.76784313725453 387.64705882352933 L 71.76784313725453 566.470588235294 M 83.23895424836564 387.64705882352933 L 83.23895424836564 566.470588235294 M 94.71006535947676 387.64705882352933 L 94.71006535947676 566.470588235294 M 106.18117647058787 387.64705882352933 L 106.18117647058787 566.470588235294 M 117.65228758169899 387.64705882352933 L 117.65228758169899 566.470588235294 M 129.1233986928101 387.64705882352933 L 129.1233986928101 566.470588235294 M 140.5945098039212 387.64705882352933 L 140.5945098039212 566.470588235294 M 152.0656209150323 387.64705882352933 L 152.0656209150323 566.470588235294 M 163.5367320261434 387.64705882352933 L 163.5367320261434 566.470588235294 M 175.0078431372545 387.64705882352933 L 175.0078431372545 566.470588235294 M 186.4789542483656 387.64705882352933 L 186.4789542483656 566.470588235294 M 197.9500653594767 387.64705882352933 L 197.9500653594767 566.470588235294 M 209.4211764705878 387.64705882352933 L 209.4211764705878 566.470588235294 M 220.8922875816989 387.64705882352933 L 220.8922875816989 566.470588235294 M 232.36339869281 387.64705882352933 L 232.36339869281 566.470588235294 M 243.8345098039211 387.64705882352933 L 243.8345098039211 566.470588235294 M 255.3056209150322 387.64705882352933 L 255.3056209150322 566.470588235294 M 266.7767320261433 387.64705882352933 L 266.7767320261433 566.470588235294 M 278.2478431372544 387.64705882352933 L 278.2478431372544 566.470588235294 M 289.7189542483655 387.64705882352933 L 289.7189542483655 566.470588235294 M 301.1900653594766 387.64705882352933 L 301.1900653594766 566.470588235294 M 312.6611764705877 387.64705882352933 L 312.6611764705877 566.470588235294 M 324.1322875816988 387.64705882352933 L 324.1322875816988 566.470588235294 M 335.6033986928099 387.64705882352933 L 335.6033986928099 566.470588235294 M 347.074509803921 387.64705882352933 L 347.074509803921 566.470588235294 M 358.5456209150321 387.64705882352933 L 358.5456209150321 566.470588235294 M 370.0167320261432 387.64705882352933 L 370.0167320261432 566.470588235294 M 381.4878431372543 387.64705882352933 L 381.4878431372543 566.470588235294 M 392.9589542483654 387.64705882352933 L 392.9589542483654 566.470588235294 M 404.4300653594765 387.64705882352933 L 404.4300653594765 566.470588235294 M 415.9011764705876 387.64705882352933 L 415.9011764705876 566.470588235294 M 427.3722875816987 387.64705882352933 L 427.3722875816987 566.470588235294 "/>
            </g>
        </pattern>
        <pattern latexdraw:type="hlines"
            latexdraw:rotationAngle="1.5707963267948966"
            latexdraw:size="10.06" patternUnits="userSpaceOnUse"
            id="pattern1784032674" x="0" y="0" width="1024" height="243">
            <g stroke="#ff0033" stroke-width="1.4111111111111112" stroke-dasharray="none">
                <path d="M 960.0 107.05882352941126 L 960.0 243.52941176470534 M 971.4711111111111 107.05882352941126 L 971.4711111111111 243.52941176470534 M 982.9422222222222 107.05882352941126 L 982.9422222222222 243.52941176470534 M 994.4133333333333 107.05882352941126 L 994.4133333333333 243.52941176470534 M 1005.8844444444444 107.05882352941126 L 1005.8844444444444 243.52941176470534 M 1017.3555555555555 107.05882352941126 L 1017.3555555555555 243.52941176470534 "/>
            </g>
        </pattern>
        <pattern latexdraw:type="crosshatch"
            latexdraw:rotationAngle="0.0"
            latexdraw:size="7.055555555555555"
            patternUnits="userSpaceOnUse" id="pattern1380654289" x="0"
            y="0" width="607" height="493">
            <g stroke="#ff3333" stroke-width="1.4111111111111112" stroke-dasharray="none">
                <path d="M 565.2941176470608 451.1764705882356 L 565.2941176470608 493.52941176470495 M 573.7607843137275 451.1764705882356 L 573.7607843137275 493.52941176470495 M 582.2274509803942 451.1764705882356 L 582.2274509803942 493.52941176470495 M 590.6941176470609 451.1764705882356 L 590.6941176470609 493.52941176470495 M 599.1607843137276 451.1764705882356 L 599.1607843137276 493.52941176470495 M 607.6274509803943 451.1764705882356 L 607.6274509803943 493.52941176470495 M 565.2941176470608 451.1764705882356 L 607.6470588235302 451.1764705882356 M 565.2941176470608 459.64313725490223 L 607.6470588235302 459.64313725490223 M 565.2941176470608 468.10980392156887 L 607.6470588235302 468.10980392156887 M 565.2941176470608 476.5764705882355 L 607.6470588235302 476.5764705882355 M 565.2941176470608 485.04313725490215 L 607.6470588235302 485.04313725490215 M 565.2941176470608 493.5098039215688 L 607.6470588235302 493.5098039215688 "/>
            </g>
        </pattern>
        <marker overflow="visible" orient="auto" id="arrow0-1991737163">
            <path
                d="M 0.0 -2.9409722222222223 L 0.0 2.9409722222222223 "
                latexdraw:tbarSizeNum="5.0" stroke="black" fill="none" stroke-width="1.0"/>
        </marker>
        <marker overflow="visible" orient="auto" id="arrow1-1991737163">
            <path
                d="M 0.0 -2.9409722222222223 L 0.0 2.9409722222222223 "
                latexdraw:tbarSizeNum="5.0" stroke="black" fill="none" stroke-width="1.0"/>
        </marker>
    </defs>
    <metadata>
        <latexdraw:metadata>
            <latexdraw:latexIncludes>
\usepackage{CJKutf8}
\newcommand{\cn}[1]{
  \begin{CJK*}{UTF8}{gbsn}
  #1
  \end{CJK*}
}</latexdraw:latexIncludes>
            <latexdraw:displayXScale>true</latexdraw:displayXScale>
            <latexdraw:displayYScale>true</latexdraw:displayYScale>
            <latexdraw:unit>CM</latexdraw:unit>
            <latexdraw:zoom>0.85</latexdraw:zoom>
            <latexdraw:magneticGridStyle>CUSTOMISED</latexdraw:magneticGridStyle>
            <latexdraw:gridGap>20</latexdraw:gridGap>
            <latexdraw:magneticGrid>false</latexdraw:magneticGrid>
            <latexdraw:version>3.3.6</latexdraw:version>
            <latexdraw:size>
                <latexdraw:width>1440</latexdraw:width>
                <latexdraw:height>803</latexdraw:height>
            </latexdraw:size>
            <latexdraw:position>
                <latexdraw:x>16.0</latexdraw:x>
                <latexdraw:y>23.0</latexdraw:y>
            </latexdraw:position>
        </latexdraw:metadata>
    </metadata>
</svg>
