<?xml version="1.1" encoding="UTF-8"?>
<svg xmlns="http://www.w3.org/2000/svg"
    xmlns:latexdraw="http://latexdraw.sourceforge.net/namespaces/latexdraw"
    version="1.1" baseProfile="full">
    <g>
        <g latexdraw:type="bezierCurve" id="id1411971389">
            <path
                d="M 211.1764705882353 427.64705882352945 C 186.45511103823938 411.16873198970796 130.33438611630655 470.62899755505316 134.7058823529412 499.4117647058824 C 139.07737858957583 528.1945318567116 234.75394493246793 540.1773480722916 240.58823529411765 504.11764705882354 C 246.42252565576737 468.0579460453555 235.89783013823123 444.12538565735093 211.1764705882353 427.64705882352945 z "
                stroke-width="2.0" stroke="red"
                fill="url(#pattern1411971389)" latexdraw:rotationAngle="0.0"/>
        </g>
        <g latexdraw:type="bezierCurve" id="id727300422">
            <path
                d="M 120.0 292.94117647058823 C 75.2786404500043 270.5804966955904 54.45203317512992 325.33487990799495 56.470588235294116 375.29411764705884 C 58.48914329545831 425.25335538612273 94.16570963835011 449.0008774840561 124.70588235294117 409.4117647058824 C 155.24605506753224 369.82265192770865 164.7213595499957 315.30185624558607 120.0 292.94117647058823 z "
                stroke-width="2.0" stroke="red"
                fill="url(#pattern727300422)" latexdraw:rotationAngle="0.0"/>
        </g>
        <g latexdraw:type="bezierCurve" id="id515545665">
            <path
                d="M 185.88235294117646 151.76470588235296 C 226.9508512248411 174.25146375668862 265.4199805050125 132.42893493046995 257.6470588235294 102.60180995475099 C 249.87413714204627 72.77468497903203 213.00239788285688 35.766208909104535 178.82352941176472 55.294117647058556 C 144.64466094067257 74.82202638501258 144.81385465751183 129.2779480080173 185.88235294117646 151.76470588235296 z "
                stroke-width="2.0" stroke="red"
                fill="url(#pattern515545665)" latexdraw:rotationAngle="0.0"/>
        </g>
        <g latexdraw:type="circle" id="id1858210603">
            <circle cx="437.64705882353076" cy="231.1764705882349"
                r="45.970588235293576" latexdraw:borderPos="outer"
                stroke-width="1.0" stroke="#ff3333" fill="url(#pattern1858210603)"/>
        </g>
        <g latexdraw:type="circle" id="id214364629">
            <circle cx="251.17647058823627" cy="178.82352941176424"
                r="31.852941176470722" latexdraw:borderPos="outer"
                stroke-width="1.0" stroke="#ff3333" fill="url(#pattern214364629)"/>
        </g>
        <g latexdraw:type="circle" id="id1302249284">
            <circle cx="163.52941176470603" cy="307.64705882352933"
                r="33.029411764705685" latexdraw:borderPos="outer"
                stroke-width="1.0" stroke="#ff3333" fill="url(#pattern1302249284)"/>
        </g>
        <g latexdraw:type="circle" id="id673329022">
            <circle cx="142.35294117647095" cy="427.05882352941194"
                r="31.26470588235304" latexdraw:borderPos="outer"
                stroke-width="1.0" stroke="#ff3333" fill="url(#pattern673329022)"/>
        </g>
        <g latexdraw:type="rectangle" id="id79023973">
            <rect x="1.0" y="1.0" width="1079.1764705882351"
                height="628.5882352941176" latexdraw:borderPos="outer"
                stroke-width="2.0" stroke="black" fill="none"/>
        </g>
        <g latexdraw:type="joinedLines" id="id352950799">
            <polyline
                points="0.0,564.7058823529412 1082.3529411764707,564.7058823529412 "
                stroke-width="2.0" stroke="black" latexdraw:rotationAngle="0.0"/>
        </g>
        <g latexdraw:type="joinedLines" id="id2013120948">
            <polyline
                points="540.0,0.0 537.6470588235293,564.7058823529412 "
                stroke-width="2.0" stroke="black" latexdraw:rotationAngle="0.0"/>
        </g>
        <g latexdraw:type="bezierCurve" id="id2095121102">
            <path
                d="M 470.5882352941177 258.8235294117647 C 421.17647058823536 217.6470588235294 378.7314608974898 172.92583171820905 329.4117647058824 164.7058823529412 C 280.09206851427496 156.48593298767332 215.29411764705884 182.35294117647058 195.29411764705884 222.35294117647058 C 175.29411764705884 262.3529411764706 161.1764705882353 305.88235294117646 160.0 320.0 C 158.8235294117647 334.11764705882354 154.11764705882354 360.0 154.11764705882354 360.0 C 154.11764705882354 360.0 147.05882352941177 384.70588235294116 145.88235294117646 422.3529411764706 "
                stroke-width="10.0" stroke="black" fill="none" latexdraw:rotationAngle="0.0"/>
        </g>
        <g latexdraw:type="dot" id="id21519161" latexdraw:size="27.0"
            latexdraw:dotShape="*" latexdraw:position="444.7058823529415 235.29411764705884">
            <path
                d="M 457.16742081447995 235.29411764705884 C 457.16742081447995 242.17643529879643 451.5882000046791 247.75565610859732 444.7058823529415 247.75565610859732 C 437.8235647012039 247.75565610859732 432.24434389140305 242.17643529879643 432.24434389140305 235.29411764705884 C 432.24434389140305 228.41179999532127 437.8235647012039 222.8325791855204 444.7058823529415 222.8325791855204 C 451.5882000046791 222.8325791855204 457.16742081447995 228.41179999532127 457.16742081447995 235.29411764705884 z "
                fill="black" stroke-linecap="square"
                stroke-linejoin="butt" stroke-width="1.6875"
                stroke-miterlimit="10.0" stroke-dashoffset="0.0" stroke="black"/>
        </g>
        <g latexdraw:type="dot" id="id1140636149" latexdraw:size="27.0"
            latexdraw:dotShape="*" latexdraw:position="251.76470588235298 176.4705882352939">
            <path
                d="M 264.22624434389144 176.4705882352939 C 264.22624434389144 183.35290588703148 258.6470235340906 188.93212669683237 251.76470588235298 188.93212669683237 C 244.88238823061542 188.93212669683237 239.30316742081453 183.35290588703148 239.30316742081453 176.4705882352939 C 239.30316742081453 169.58827058355632 244.88238823061542 164.00904977375544 251.76470588235298 164.00904977375544 C 258.6470235340906 164.00904977375544 264.22624434389144 169.58827058355632 264.22624434389144 176.4705882352939 z "
                fill="black" stroke-linecap="square"
                stroke-linejoin="butt" stroke-width="1.6875"
                stroke-miterlimit="10.0" stroke-dashoffset="0.0" stroke="black"/>
        </g>
        <g latexdraw:type="dot" id="id314274161"
            latexdraw:size="27.000000000000146" latexdraw:dotShape="*" latexdraw:position="164.7058823529412 305.88235294117646">
            <path
                d="M 177.1674208144797 305.88235294117646 C 177.1674208144797 312.7646705929141 171.5882000046788 318.34389140271503 164.7058823529412 318.34389140271503 C 157.82356470120357 318.34389140271503 152.24434389140265 312.7646705929141 152.24434389140265 305.88235294117646 C 152.24434389140265 299.00003528943887 157.82356470120357 293.42081447963795 164.7058823529412 293.42081447963795 C 171.5882000046788 293.42081447963795 177.1674208144797 299.00003528943887 177.1674208144797 305.88235294117646 z "
                fill="black" stroke-linecap="square"
                stroke-linejoin="butt" stroke-width="1.6875"
                stroke-miterlimit="10.0" stroke-dashoffset="0.0" stroke="black"/>
        </g>
        <g latexdraw:type="dot" id="id608914991" latexdraw:size="27.0"
            latexdraw:dotShape="*" latexdraw:position="143.52941176470603 420.0000000000001">
            <path
                d="M 155.9909502262445 420.0000000000001 C 155.9909502262445 426.8823176517377 150.41172941644362 432.46153846153857 143.52941176470603 432.46153846153857 C 136.64709411296846 432.46153846153857 131.06787330316757 426.8823176517377 131.06787330316757 420.0000000000001 C 131.06787330316757 413.1176823482625 136.64709411296846 407.53846153846166 143.52941176470603 407.53846153846166 C 150.41172941644362 407.53846153846166 155.9909502262445 413.1176823482625 155.9909502262445 420.0000000000001 z "
                fill="black" stroke-linecap="square"
                stroke-linejoin="butt" stroke-width="1.6875"
                stroke-miterlimit="10.0" stroke-dashoffset="0.0" stroke="black"/>
        </g>
        <g latexdraw:type="joinedLines" id="id2131577536">
            <polyline
                points="518.8235294117648,309.4117647058824 467.05882352941177,255.29411764705884 "
                stroke-width="10.0" stroke="black"
                latexdraw:rotationAngle="0.0" marker-start="url(#arrow0-2131577536)"/>
        </g>
        <g latexdraw:type="text" id="id1869782428" fill="black" latexdraw:position="bl">
            <text x="467.0588235294126" y="324.70588235294116">\cn{到香港}</text>
        </g>
        <g latexdraw:type="bezierCurve" id="id935411050">
            <path
                d="M 442.3529411764706 233.3863275039745 C 393.47305942654526 226.23354994353363 381.9411688097968 215.91808987470628 334.08823529411757 215.29411764705884 C 286.2353017784383 214.6701454194114 277.85541236772167 216.85358174003596 232.61764705882342 240.47694753577107 C 187.37988174992518 264.1003133315062 191.91177236667286 277.37284812211385 167.05882352941217 303.5294117647054 "
                stroke-width="4.0" stroke="black" fill="none" latexdraw:rotationAngle="0.0"/>
        </g>
        <g latexdraw:type="bezierCurve" id="id151737222">
            <path
                d="M 270.5882352941177 220.0 C 257.3114274314348 201.27515889876338 280.40007080362983 215.30324493706502 252.94117647058823 178.08823529411754 C 225.48228213754663 140.87322565117006 224.10861657674766 190.416976869768 201.1764705882353 150.8455882352938 C 178.24432459972294 111.2741996008196 160.02094396373684 123.34108192278833 187.05882352941177 85.88235294117612 C 214.0967030950867 48.42362395956391 229.40323065314473 86.16492905343121 236.47058823529412 105.7904411764703 C 243.5379458174435 125.41595329950938 257.51968984521386 137.32763639325555 201.1764705882353 148.74999999999983 "
                stroke-width="4.0" stroke="black" fill="none" latexdraw:rotationAngle="0.0"/>
        </g>
        <g latexdraw:type="bezierCurve" id="id1052081728">
            <path
                d="M 157.64705882352942 311.7647058823529 C 157.60007703579237 348.9707590349806 122.86956582740252 349.75601004329314 127.05882352941171 386.2865391555395 C 131.24808123142088 422.8170682677859 149.25783104648738 424.75567422805113 127.05882352941171 453.2298809094191 C 104.85981601233604 481.704087590787 114.56358925281219 478.39267274270134 81.17647058823513 517.6470588235293 "
                stroke-width="4.0" stroke="black" fill="none" latexdraw:rotationAngle="0.0"/>
        </g>
        <g latexdraw:type="bezierCurve" id="id125579479">
            <path
                d="M 159.19736118746584 308.2352941176471 C 125.57368880044032 310.9151526534623 109.5471056935094 301.9266701543591 83.52941176470588 342.5688756515264 C 57.511717835902374 383.2110811486937 89.49529125648829 403.79787409785735 93.24903793292994 413.6411020104242 C 97.00278460937159 423.4843299229911 166.27317781533438 418.9783203421909 186.04727872457423 427.88533134772854 C 205.82137963381408 436.7923423532662 213.18174001733885 446.8705954069722 218.82352941176524 472.94117647058823 "
                stroke-width="4.0" stroke="black" fill="none" latexdraw:rotationAngle="0.0"/>
        </g>
        <g latexdraw:type="rectangle" id="id466404023">
            <rect x="24.529411764705884" y="599.8235294117649"
                width="52.11764705882338" height="22.705882352941217"
                latexdraw:borderPos="outer" stroke-width="2.0"
                stroke="red" fill="url(#pattern466404023)"/>
        </g>
        <g latexdraw:type="rectangle" id="id1863256432">
            <rect x="23.352941176470722" y="570.4117647058825"
                width="53.294117647059466" height="23.882352941176464"
                latexdraw:borderPos="outer" stroke-width="2.0"
                stroke="red" fill="url(#pattern1863256432)"/>
        </g>
        <g latexdraw:type="dot" id="id1797182459" latexdraw:size="27.0"
            latexdraw:dotShape="*" latexdraw:position="258.23529411764713 584.1176470588232">
            <path
                d="M 270.6968325791856 584.1176470588232 C 270.6968325791856 590.9999647105608 265.1176117693847 596.5791855203616 258.23529411764713 596.5791855203616 C 251.35297646590956 596.5791855203616 245.77375565610868 590.9999647105608 245.77375565610868 584.1176470588232 C 245.77375565610868 577.2353294070856 251.35297646590956 571.6561085972847 258.23529411764713 571.6561085972847 C 265.1176117693847 571.6561085972847 270.6968325791856 577.2353294070856 270.6968325791856 584.1176470588232 z "
                fill="black" stroke-linecap="square"
                stroke-linejoin="butt" stroke-width="1.6875"
                stroke-miterlimit="10.0" stroke-dashoffset="0.0" stroke="black"/>
        </g>
        <g latexdraw:type="joinedLines" id="id1855774039">
            <polyline
                points="285.2941176470591,613.5294117647059 230.00000000000006,613.5294117647061 "
                stroke-width="10.0" stroke="black" latexdraw:rotationAngle="0.0"/>
        </g>
        <g latexdraw:type="bezierCurve" id="id912791681">
            <path
                d="M 93.5294117647054 503.38632750397454 C 128.75291799483884 520.9394322964748 119.07635017357924 487.0945604629416 146.46521493212654 486.47058823529414 C 173.85407969067384 485.8466160076467 171.10331392244063 497.44181703415376 190.0427036199092 508.1240063593005 C 208.98209331737775 518.8061956844472 227.27800503003994 505.01990694564273 217.0588235294123 467.6470588235289 "
                stroke-width="4.0" stroke="black" fill="none" latexdraw:rotationAngle="0.0"/>
        </g>
        <g latexdraw:type="bezierCurve" id="id1059331893">
            <path
                d="M 276.47058823529414 207.05882352941177 C 234.1021698617688 220.31502654075774 177.98144493983594 254.7900623294748 182.35294117647058 276.47058823529414 C 186.72443741310522 298.15111414111345 243.57747434423266 242.21150893756956 352.94117647058823 232.696715049656 C 462.3048785969438 223.18192116174245 318.8390066088195 193.8026205180658 276.47058823529414 207.05882352941177 z "
                stroke-width="2.0" stroke="red"
                fill="url(#pattern1059331893)" latexdraw:rotationAngle="0.0"/>
        </g>
        <g latexdraw:type="bezierCurve" id="id1186828588">
            <path
                d="M 202.35294117647058 347.05882352941177 C 196.07765479240294 396.66346827966083 255.2075275953802 471.8608245357787 303.5294117647059 484.7058823529412 C 351.8512959340316 497.55094017010373 512.5482430277018 446.07523298550666 518.8235294117648 396.47058823529414 C 525.0988157958277 346.86594348508163 400.086590051679 274.02152840539793 351.7647058823529 261.1764705882353 C 303.44282171302683 248.33141277107268 208.62822756053822 297.4541787791627 202.35294117647058 347.05882352941177 z "
                stroke-width="2.0" stroke="#66cc00"
                fill="url(#pattern1186828588)" latexdraw:rotationAngle="0.0"/>
        </g>
        <g latexdraw:type="dot" id="id1041563717" latexdraw:size="27.0"
            latexdraw:dotShape="*" latexdraw:position="80.00000000000028 519.9999999999998">
            <path
                d="M 92.46153846153874 519.9999999999998 C 92.46153846153874 526.8823176517374 86.88231765173786 532.4615384615382 80.00000000000028 532.4615384615382 C 73.1176823482627 532.4615384615382 67.53846153846182 526.8823176517374 67.53846153846182 519.9999999999998 C 67.53846153846182 513.1176823482622 73.1176823482627 507.5384615384613 80.00000000000028 507.5384615384613 C 86.88231765173786 507.5384615384613 92.46153846153874 513.1176823482622 92.46153846153874 519.9999999999998 z "
                fill="#3366ff" stroke-linecap="square"
                stroke-linejoin="butt" stroke-width="1.6875"
                stroke-miterlimit="10.0" stroke-dashoffset="0.0" stroke="#3366ff"/>
        </g>
        <g latexdraw:type="dot" id="id498621868" latexdraw:size="27.0"
            latexdraw:dotShape="*" latexdraw:position="513.5294117647061 607.647058823529">
            <path
                d="M 525.9909502262445 607.647058823529 C 525.9909502262445 614.5293764752666 520.4117294164437 620.1085972850675 513.5294117647061 620.1085972850675 C 506.6470941129685 620.1085972850675 501.06787330316763 614.5293764752666 501.06787330316763 607.647058823529 C 501.06787330316763 600.7647411717915 506.6470941129685 595.1855203619906 513.5294117647061 595.1855203619906 C 520.4117294164437 595.1855203619906 525.9909502262445 600.7647411717915 525.9909502262445 607.647058823529 z "
                fill="#3366ff" stroke-linecap="square"
                stroke-linejoin="butt" stroke-width="1.6875"
                stroke-miterlimit="10.0" stroke-dashoffset="0.0" stroke="#3366ff"/>
        </g>
        <g latexdraw:type="rectangle" id="id285431805">
            <rect x="690.4117647058821" y="602.1764705882354"
                width="53.2941176470589" height="21.529411764706083"
                latexdraw:borderPos="outer" stroke-width="2.0"
                stroke="#66cc00" fill="url(#pattern285431805)"/>
        </g>
        <g latexdraw:type="text" id="id1494051590" fill="black" latexdraw:position="bl">
            <text x="2.9411764705891983" y="47.647058823528994">\Huge\textbf{\cn{香港，新界，元朗，屯门}}</text>
        </g>
        <g latexdraw:type="text" id="id1441067277" fill="black" latexdraw:position="bl">
            <text x="631.7647058823532" y="48.235294117647015">\Huge\textbf{\cn{珠海，香洲，新湾}}</text>
        </g>
        <g latexdraw:type="bezierCurve" id="id1592429943">
            <path
                d="M 1045.5187644045495 62.42473346038912 C 1095.2451899871871 64.40160921489132 1072.003103857449 52.70097426709553 1079.5271725411721 115.32892438203871 C 1087.0512412248952 177.95687449698187 1076.3376672227243 213.52704340975396 1079.00257609343 246.89735484572384 C 1081.6674849641356 280.2676662816937 1080.6704825814827 338.5247610763701 1081.7564427637435 369.13159895966066 C 1082.8424029460043 399.7384368429512 1076.6535942413793 531.2374437294505 1080.6230313623305 550.2548480726828 C 1084.5924684832817 569.272252415915 1066.3824668589177 561.2046094301686 1047.925092178343 562.6480981285476 C 1029.4677174977683 564.0915868269267 1093.4974997920635 126.12185766742081 989.6638422847002 97.7705658534759 C 885.8301847773369 69.41927403953099 995.7923388219119 60.44785770588692 1045.5187644045495 62.42473346038912 z "
                stroke-width="2.0" stroke="#3366ff"
                fill="url(#pattern1592429943)" latexdraw:rotationAngle="0.0"/>
        </g>
        <g latexdraw:type="bezierCurve" id="id1831694152">
            <path
                d="M 11.176470588234759 149.50879320800487 C 6.793730891425605 190.6755344698097 6.690224688463033 274.6340438915792 40.43884220354759 285.29411764705935 C 74.18745971863214 295.9541914025395 164.4407897149582 273.0345399276329 179.41176470588184 213.04426925409376 C 194.38273969680546 153.0539985805546 101.04086774851089 90.07183846136266 67.29225023342599 79.41176470588235 C 33.54363271834109 68.75169095040204 15.559210285043912 108.34205194620006 11.176470588234759 149.50879320800487 z "
                stroke-width="2.0" stroke="#66cc00"
                fill="url(#pattern1831694152)" latexdraw:rotationAngle="0.0"/>
        </g>
        <g latexdraw:type="rectangle" id="id364388573">
            <rect x="691.5882352941171" y="571.588235294118"
                width="52.11764705882388" height="23.882352941176464"
                latexdraw:borderPos="outer" stroke-width="2.0"
                stroke="#3366ff" fill="url(#pattern364388573)"/>
        </g>
        <g latexdraw:type="joinedLines" id="id321073764">
            <polyline
                points="479.9999999999999,581.1764705882355 538.8235294117645,581.1764705882355 "
                stroke-width="4.0" stroke="black" latexdraw:rotationAngle="0.0"/>
        </g>
        <g latexdraw:type="joinedLines" id="id1145209654">
            <polyline
                points="641.7647058823532,564.1176470588239 640.5882352941177,513.5294117647059 "
                stroke-width="10.0" stroke="black"
                latexdraw:rotationAngle="0.0" marker-start="url(#arrow0-1145209654)"/>
        </g>
        <g latexdraw:type="text" id="id504297971" fill="black" latexdraw:position="bl">
            <text x="566.470588235295" y="555.8823529411773">\cn{到珠海}</text>
        </g>
        <g latexdraw:type="text" id="id499489984" fill="black" latexdraw:position="bl">
            <text x="611.7647058823541" y="74.1176470588241">\cn{到广州}</text>
        </g>
        <g latexdraw:type="bezierCurve" id="id288393389">
            <path
                d="M 586.4705882352941 302.94117647058823 C 469.6070665571091 337.25170357377897 609.913409948321 444.2137657122493 658.2352941176471 419.4117647058824 C 706.5571782869731 394.60976369951544 988.4305959688783 412.54582122080075 994.7058823529412 362.94117647058823 C 1000.9811687370042 313.3365317203757 927.7336488752082 305.1979989936332 906.4705882352941 220.58823529411765 C 885.20752759538 135.97847159460213 703.3341099134792 268.6306493673975 586.4705882352941 302.94117647058823 z "
                stroke-width="2.0" stroke="#66cc00"
                fill="url(#pattern288393389)" latexdraw:rotationAngle="0.0"/>
        </g>
        <g latexdraw:type="circle" id="id443423511">
            <circle cx="927.0588235294133" cy="182.35294117647004"
                r="34.79411764705833" latexdraw:borderPos="outer"
                stroke-width="1.0" stroke="#ff3333" fill="url(#pattern443423511)"/>
        </g>
        <g latexdraw:type="text" id="id133007884" fill="black" latexdraw:position="bl">
            <text x="913.5294117647068" y="246.47058823529477">\color{red}\cn{唐家}</text>
        </g>
        <g latexdraw:type="bezierCurve" id="id1831964485">
            <path
                d="M 676.5417759460471 545.294117647059 C 716.8255258548644 566.2223873518863 1047.3209100644883 587.5640055997964 1040.5882352941176 473.92375436638616 C 1033.8555605237468 360.28350313297597 710.5845926029668 412.06318150543325 649.9999999999999 434.70588235294053 C 589.4154073970329 457.3485832004478 636.2580260372298 524.3658479422318 676.5417759460471 545.294117647059 z "
                stroke-width="2.0" stroke="red"
                fill="url(#pattern1831964485)" latexdraw:rotationAngle="0.0"/>
        </g>
        <g latexdraw:type="dot" id="id2084698038" latexdraw:size="27.0"
            latexdraw:dotShape="*" latexdraw:position="630.0000000000002 478.2352941176471">
            <path
                d="M 642.4615384615387 478.2352941176471 C 642.4615384615387 485.11761176938467 636.8823176517378 490.6968325791855 630.0000000000002 490.6968325791855 C 623.1176823482626 490.6968325791855 617.5384615384618 485.11761176938467 617.5384615384618 478.2352941176471 C 617.5384615384618 471.3529764659095 623.1176823482626 465.7737556561086 630.0000000000002 465.7737556561086 C 636.8823176517378 465.7737556561086 642.4615384615387 471.3529764659095 642.4615384615387 478.2352941176471 z "
                fill="black" stroke-linecap="square"
                stroke-linejoin="butt" stroke-width="1.6875"
                stroke-miterlimit="10.0" stroke-dashoffset="0.0" stroke="black"/>
        </g>
        <g latexdraw:type="bezierCurve" id="id1983730136">
            <path
                d="M 629.3186274509801 261.76470588235225 C 688.264529945195 278.7274792673061 894.5997688271787 155.47754926879117 886.4705882352941 125.00667339431578 C 878.3414076434096 94.5357975198404 626.9218705309193 74.75650795877183 591.1764705882351 94.70588235294065 C 555.431070645551 114.65525674710946 570.3727249567652 244.8019324973984 629.3186274509801 261.76470588235225 z "
                stroke-width="2.0" stroke="red"
                fill="url(#pattern1983730136)" latexdraw:rotationAngle="0.0"/>
        </g>
        <g latexdraw:type="bezierCurve" id="id2029978803">
            <path
                d="M 692.3529411764706 98.23529411764706 C 717.0588235294117 173.52941176470586 698.1432256033718 209.9846552476212 655.8823529411765 251.17647058823584 C 613.6214802789812 292.36828592885047 607.6470588235294 295.88235294117646 600.5882352941177 338.2352941176471 C 593.529411764706 380.5882352941177 599.4117647058823 417.05882352941177 604.1176470588235 431.1764705882353 C 608.8235294117648 445.29411764705884 620.5882352941177 461.7647058823529 620.5882352941177 461.7647058823529 C 620.5882352941177 461.7647058823529 641.7647058823529 484.11764705882354 640.5882352941177 528.8235294117648 "
                stroke-width="10.0" stroke="black" fill="none" latexdraw:rotationAngle="0.0"/>
        </g>
        <g latexdraw:type="dot" id="id1318298901" latexdraw:size="27.0"
            latexdraw:dotShape="*" latexdraw:position="698.8235294117646 116.47058823529392">
            <path
                d="M 711.2850678733031 116.47058823529392 C 711.2850678733031 123.3529058870315 705.7058470635022 128.93212669683237 698.8235294117646 128.93212669683237 C 691.941211760027 128.93212669683237 686.3619909502262 123.3529058870315 686.3619909502262 116.47058823529392 C 686.3619909502262 109.58827058355634 691.941211760027 104.00904977375545 698.8235294117646 104.00904977375545 C 705.7058470635022 104.00904977375545 711.2850678733031 109.58827058355634 711.2850678733031 116.47058823529392 z "
                fill="black" stroke-linecap="square"
                stroke-linejoin="butt" stroke-width="1.6875"
                stroke-miterlimit="10.0" stroke-dashoffset="0.0" stroke="black"/>
        </g>
        <g latexdraw:type="dot" id="id1086762377" latexdraw:size="27.0"
            latexdraw:dotShape="*" latexdraw:position="657.6470588235295 249.4117647058822">
            <path
                d="M 670.108597285068 249.4117647058822 C 670.108597285068 256.2940823576198 664.5293764752671 261.87330316742066 657.6470588235295 261.87330316742066 C 650.7647411717919 261.87330316742066 645.185520361991 256.2940823576198 645.185520361991 249.4117647058822 C 645.185520361991 242.52944705414464 650.7647411717919 236.95022624434375 657.6470588235295 236.95022624434375 C 664.5293764752671 236.95022624434375 670.108597285068 242.52944705414464 670.108597285068 249.4117647058822 z "
                fill="black" stroke-linecap="square"
                stroke-linejoin="butt" stroke-width="1.6875"
                stroke-miterlimit="10.0" stroke-dashoffset="0.0" stroke="black"/>
        </g>
        <g latexdraw:type="joinedLines" id="id625740931">
            <polyline
                points="681.0470988001774,58.90491383456883 698.9529011998239,121.09508616543162 "
                stroke-width="10.0" stroke="black"
                latexdraw:rotationAngle="0.0" marker-start="url(#arrow0-625740931)"/>
        </g>
        <g latexdraw:type="bezierCurve" id="id2000002421">
            <path
                d="M 585.8823529411765 476.47058823529414 C 622.7161196731043 437.9428268048939 620.426018091754 448.84334121920006 669.4117647058823 438.8235294117647 C 718.3975113200106 428.80371760432934 780.8778829158249 445.3740921490049 802.3529411764706 445.88235294117646 C 823.8279994371163 446.390613733348 888.4921808330781 451.041030498762 908.2352941176471 452.94117647058823 C 927.978407402216 454.8413224424145 989.0407142041863 479.6645420069131 995.2941176470589 414.11764705882354 "
                stroke-width="4.0" stroke="black" fill="none" latexdraw:rotationAngle="0.0"/>
        </g>
        <g latexdraw:type="bezierCurve" id="id1636688155">
            <path
                d="M 32.35294117647022 387.64705882352933 C 73.11125171960066 465.2528184750756 48.57901531089272 417.47128896130715 60.58823529411728 471.17647058823525 C 72.59745527734185 524.8816522151633 53.362728167868546 536.4790017668324 101.76470588235257 533.5294117647059 C 150.1666835968366 530.5798217625793 386.6122559238499 537.4206144115733 428.82352941176435 554.7058823529411 C 471.0348028996788 571.9911502943089 309.71986763598335 559.5454529180224 189.99999999999963 562.9411764705882 C 70.28013236401591 566.3369000231539 9.174570730723374 560.1454339453945 5.2941176470584494 566.470588235294 C 1.4136645633935245 572.7957425251935 2.393303491432775 481.0099507909816 2.9411764705878607 406.47058823529403 C 3.4890494497429465 331.9312256796065 -8.405369366660224 310.04129917198304 32.35294117647022 387.64705882352933 z "
                stroke-width="2.0" stroke="#3366ff"
                fill="url(#pattern1636688155)" latexdraw:rotationAngle="0.0"/>
        </g>
        <g latexdraw:type="dot" id="id1856277096" latexdraw:size="27.0"
            latexdraw:dotShape="*" latexdraw:position="1043.529411764706 464.70588235294076">
            <path
                d="M 1055.9909502262444 464.70588235294076 C 1055.9909502262444 471.58820000467836 1050.4117294164434 477.1674208144792 1043.529411764706 477.1674208144792 C 1036.6470941129685 477.1674208144792 1031.0678733031675 471.58820000467836 1031.0678733031675 464.70588235294076 C 1031.0678733031675 457.82356470120317 1036.6470941129685 452.2443438914023 1043.529411764706 452.2443438914023 C 1050.4117294164434 452.2443438914023 1055.9909502262444 457.82356470120317 1055.9909502262444 464.70588235294076 z "
                fill="#3366ff" stroke-linecap="square"
                stroke-linejoin="butt" stroke-width="1.6875"
                stroke-miterlimit="10.0" stroke-dashoffset="0.0" stroke="#3366ff"/>
        </g>
        <g latexdraw:type="bezierCurve" id="id1118159826">
            <path
                d="M 960.0 107.05882352941126 C 887.9748850291784 128.3050817182753 1008.3042229779387 169.18051262225822 964.1745730550288 239.0549662487942 C 920.0449231321188 308.92941987533015 1013.647949252236 278.99215544771374 1024.705882352941 243.52941176470534 C 1035.763815453646 208.06666808169695 1032.0251149708215 85.81256534054722 960.0 107.05882352941126 z "
                stroke-width="2.0" stroke="red"
                fill="url(#pattern1118159826)" latexdraw:rotationAngle="0.0"/>
        </g>
        <g latexdraw:type="circle" id="id909894591">
            <circle cx="586.4705882352955" cy="472.35294117647027"
                r="20.67647058823468" latexdraw:borderPos="outer"
                stroke-width="1.0" stroke="#ff3333" fill="url(#pattern909894591)"/>
        </g>
        <g latexdraw:type="text" id="id797892716" fill="black" latexdraw:position="bl">
            <text x="83.52941176470591" y="589.4117647058825">Ville dense</text>
        </g>
        <g latexdraw:type="text" id="id44749084" fill="black" latexdraw:position="bl">
            <text x="84.11764705882393" y="615.8823529411767">Ville peu dense</text>
        </g>
        <g latexdraw:type="text" id="id1297988642" fill="black" latexdraw:position="bl">
            <text x="301.1764705882352" y="587.0588235294123">Gare</text>
        </g>
        <g latexdraw:type="text" id="id1373845055" fill="black" latexdraw:position="bl">
            <text x="298.23529411764736" y="620.5882352941177">Transport lourd</text>
        </g>
        <g latexdraw:type="text" id="id565998605" fill="black" latexdraw:position="bl">
            <text x="549.411764705882" y="591.7647058823533">Tranway</text>
        </g>
        <g latexdraw:type="text" id="id1169318011" fill="black" latexdraw:position="bl">
            <text x="551.1764705882351" y="615.8823529411771">Port</text>
        </g>
        <g latexdraw:type="text" id="id99334593" fill="black" latexdraw:position="bl">
            <text x="750.588235294118" y="589.411764705883">Delta</text>
        </g>
        <g latexdraw:type="text" id="id428342777" fill="black" latexdraw:position="bl">
            <text x="751.1764705882351" y="620.5882352941181">Espace naturel</text>
        </g>
        <g latexdraw:type="joinedLines" id="id1934705518">
            <polyline
                points="965.8823529411769,583.5294117647056 1054.117647058824,583.5294117647056 "
                stroke-width="4.0" stroke="black"
                latexdraw:rotationAngle="0.0"
                marker-start="url(#arrow0-1934705518)" marker-end="url(#arrow1-1934705518)"/>
        </g>
        <g latexdraw:type="text" id="id1168399931" fill="black" latexdraw:position="bl">
            <text x="992.3529411764707" y="601.7647058823533">5km</text>
        </g>
    </g>
    <defs>
        <pattern latexdraw:type="crosshatch"
            latexdraw:rotationAngle="1.5707963267948966"
            latexdraw:size="14.06" patternUnits="userSpaceOnUse"
            id="pattern1411971389" x="0" y="0" width="240" height="504">
            <g stroke="#ff0033" stroke-width="1.4111111111111112" stroke-dasharray="none">
                <path d="M 134.7058823529412 427.64705882352945 L 240.58823529411765 427.64705882352945 M 134.7058823529412 443.11816993464055 L 240.58823529411765 443.11816993464055 M 134.7058823529412 458.58928104575165 L 240.58823529411765 458.58928104575165 M 134.7058823529412 474.06039215686275 L 240.58823529411765 474.06039215686275 M 134.7058823529412 489.53150326797385 L 240.58823529411765 489.53150326797385 M 134.7058823529412 427.64705882352945 L 134.7058823529412 504.11764705882354 M 150.1769934640523 427.64705882352945 L 150.1769934640523 504.11764705882354 M 165.6481045751634 427.64705882352945 L 165.6481045751634 504.11764705882354 M 181.1192156862745 427.64705882352945 L 181.1192156862745 504.11764705882354 M 196.5903267973856 427.64705882352945 L 196.5903267973856 504.11764705882354 M 212.06143790849669 427.64705882352945 L 212.06143790849669 504.11764705882354 M 227.53254901960779 427.64705882352945 L 227.53254901960779 504.11764705882354 "/>
            </g>
        </pattern>
        <pattern latexdraw:type="crosshatch"
            latexdraw:rotationAngle="1.5707963267948966"
            latexdraw:size="13.06" patternUnits="userSpaceOnUse"
            id="pattern727300422" x="0" y="0" width="124" height="409">
            <g stroke="#ff0033" stroke-width="1.4111111111111112" stroke-dasharray="none">
                <path d="M 56.470588235294116 292.94117647058823 L 124.70588235294117 292.94117647058823 M 56.470588235294116 307.41228758169933 L 124.70588235294117 307.41228758169933 M 56.470588235294116 321.88339869281043 L 124.70588235294117 321.88339869281043 M 56.470588235294116 336.35450980392153 L 124.70588235294117 336.35450980392153 M 56.470588235294116 350.82562091503263 L 124.70588235294117 350.82562091503263 M 56.470588235294116 365.29673202614373 L 124.70588235294117 365.29673202614373 M 56.470588235294116 379.76784313725483 L 124.70588235294117 379.76784313725483 M 56.470588235294116 394.2389542483659 L 124.70588235294117 394.2389542483659 M 56.470588235294116 408.710065359477 L 124.70588235294117 408.710065359477 M 56.470588235294116 292.94117647058823 L 56.470588235294116 409.4117647058824 M 70.94169934640523 292.94117647058823 L 70.94169934640523 409.4117647058824 M 85.41281045751634 292.94117647058823 L 85.41281045751634 409.4117647058824 M 99.88392156862746 292.94117647058823 L 99.88392156862746 409.4117647058824 M 114.35503267973857 292.94117647058823 L 114.35503267973857 409.4117647058824 "/>
            </g>
        </pattern>
        <pattern latexdraw:type="crosshatch"
            latexdraw:rotationAngle="1.5707963267948966"
            latexdraw:size="13.06" patternUnits="userSpaceOnUse"
            id="pattern515545665" x="0" y="0" width="257" height="151">
            <g stroke="#ff0033" stroke-width="1.4111111111111112" stroke-dasharray="none">
                <path d="M 178.82352941176472 55.294117647058556 L 257.6470588235294 55.294117647058556 M 178.82352941176472 69.76522875816967 L 257.6470588235294 69.76522875816967 M 178.82352941176472 84.23633986928078 L 257.6470588235294 84.23633986928078 M 178.82352941176472 98.7074509803919 L 257.6470588235294 98.7074509803919 M 178.82352941176472 113.17856209150301 L 257.6470588235294 113.17856209150301 M 178.82352941176472 127.64967320261412 L 257.6470588235294 127.64967320261412 M 178.82352941176472 142.12078431372524 L 257.6470588235294 142.12078431372524 M 178.82352941176472 55.294117647058556 L 178.82352941176472 151.76470588235296 M 193.29464052287582 55.294117647058556 L 193.29464052287582 151.76470588235296 M 207.76575163398692 55.294117647058556 L 207.76575163398692 151.76470588235296 M 222.23686274509802 55.294117647058556 L 222.23686274509802 151.76470588235296 M 236.70797385620912 55.294117647058556 L 236.70797385620912 151.76470588235296 M 251.17908496732022 55.294117647058556 L 251.17908496732022 151.76470588235296 "/>
            </g>
        </pattern>
        <pattern latexdraw:type="crosshatch"
            latexdraw:rotationAngle="0.0" latexdraw:size="5.06"
            patternUnits="userSpaceOnUse" id="pattern1858210603" x="0"
            y="0" width="484" height="277">
            <g stroke="#ff3333" stroke-width="1.4111111111111112" stroke-dasharray="none">
                <path d="M 391.1764705882372 184.70588235294133 L 391.1764705882372 277.6470588235285 M 397.6475816993483 184.70588235294133 L 397.6475816993483 277.6470588235285 M 404.1186928104594 184.70588235294133 L 404.1186928104594 277.6470588235285 M 410.5898039215705 184.70588235294133 L 410.5898039215705 277.6470588235285 M 417.0609150326816 184.70588235294133 L 417.0609150326816 277.6470588235285 M 423.5320261437927 184.70588235294133 L 423.5320261437927 277.6470588235285 M 430.0031372549038 184.70588235294133 L 430.0031372549038 277.6470588235285 M 436.4742483660149 184.70588235294133 L 436.4742483660149 277.6470588235285 M 442.945359477126 184.70588235294133 L 442.945359477126 277.6470588235285 M 449.4164705882371 184.70588235294133 L 449.4164705882371 277.6470588235285 M 455.8875816993482 184.70588235294133 L 455.8875816993482 277.6470588235285 M 462.3586928104593 184.70588235294133 L 462.3586928104593 277.6470588235285 M 468.8298039215704 184.70588235294133 L 468.8298039215704 277.6470588235285 M 475.3009150326815 184.70588235294133 L 475.3009150326815 277.6470588235285 M 481.7720261437926 184.70588235294133 L 481.7720261437926 277.6470588235285 M 391.1764705882372 184.70588235294133 L 484.11764705882433 184.70588235294133 M 391.1764705882372 191.17699346405243 L 484.11764705882433 191.17699346405243 M 391.1764705882372 197.64810457516353 L 484.11764705882433 197.64810457516353 M 391.1764705882372 204.11921568627463 L 484.11764705882433 204.11921568627463 M 391.1764705882372 210.59032679738573 L 484.11764705882433 210.59032679738573 M 391.1764705882372 217.06143790849683 L 484.11764705882433 217.06143790849683 M 391.1764705882372 223.53254901960793 L 484.11764705882433 223.53254901960793 M 391.1764705882372 230.00366013071903 L 484.11764705882433 230.00366013071903 M 391.1764705882372 236.47477124183013 L 484.11764705882433 236.47477124183013 M 391.1764705882372 242.94588235294123 L 484.11764705882433 242.94588235294123 M 391.1764705882372 249.41699346405233 L 484.11764705882433 249.41699346405233 M 391.1764705882372 255.88810457516342 L 484.11764705882433 255.88810457516342 M 391.1764705882372 262.3592156862745 L 484.11764705882433 262.3592156862745 M 391.1764705882372 268.8303267973856 L 484.11764705882433 268.8303267973856 M 391.1764705882372 275.3014379084967 L 484.11764705882433 275.3014379084967 "/>
            </g>
        </pattern>
        <pattern latexdraw:type="crosshatch"
            latexdraw:rotationAngle="0.0" latexdraw:size="5.06"
            patternUnits="userSpaceOnUse" id="pattern214364629" x="0"
            y="0" width="283" height="211">
            <g stroke="#ff3333" stroke-width="1.4111111111111112" stroke-dasharray="none">
                <path d="M 218.82352941176555 146.47058823529352 L 218.82352941176555 211.17647058823496 M 225.29464052287665 146.47058823529352 L 225.29464052287665 211.17647058823496 M 231.76575163398775 146.47058823529352 L 231.76575163398775 211.17647058823496 M 238.23686274509885 146.47058823529352 L 238.23686274509885 211.17647058823496 M 244.70797385620995 146.47058823529352 L 244.70797385620995 211.17647058823496 M 251.17908496732105 146.47058823529352 L 251.17908496732105 211.17647058823496 M 257.65019607843215 146.47058823529352 L 257.65019607843215 211.17647058823496 M 264.12130718954324 146.47058823529352 L 264.12130718954324 211.17647058823496 M 270.59241830065434 146.47058823529352 L 270.59241830065434 211.17647058823496 M 277.06352941176544 146.47058823529352 L 277.06352941176544 211.17647058823496 M 218.82352941176555 146.47058823529352 L 283.529411764707 146.47058823529352 M 218.82352941176555 152.94169934640462 L 283.529411764707 152.94169934640462 M 218.82352941176555 159.41281045751572 L 283.529411764707 159.41281045751572 M 218.82352941176555 165.88392156862682 L 283.529411764707 165.88392156862682 M 218.82352941176555 172.35503267973792 L 283.529411764707 172.35503267973792 M 218.82352941176555 178.82614379084902 L 283.529411764707 178.82614379084902 M 218.82352941176555 185.29725490196012 L 283.529411764707 185.29725490196012 M 218.82352941176555 191.76836601307122 L 283.529411764707 191.76836601307122 M 218.82352941176555 198.23947712418232 L 283.529411764707 198.23947712418232 M 218.82352941176555 204.71058823529341 L 283.529411764707 204.71058823529341 "/>
            </g>
        </pattern>
        <pattern latexdraw:type="crosshatch"
            latexdraw:rotationAngle="0.0" latexdraw:size="5.06"
            patternUnits="userSpaceOnUse" id="pattern1302249284" x="0"
            y="0" width="197" height="341">
            <g stroke="#ff3333" stroke-width="1.4111111111111112" stroke-dasharray="none">
                <path d="M 130.00000000000034 274.11764705882365 L 130.00000000000034 341.176470588235 M 136.47111111111144 274.11764705882365 L 136.47111111111144 341.176470588235 M 142.94222222222254 274.11764705882365 L 142.94222222222254 341.176470588235 M 149.41333333333364 274.11764705882365 L 149.41333333333364 341.176470588235 M 155.88444444444474 274.11764705882365 L 155.88444444444474 341.176470588235 M 162.35555555555584 274.11764705882365 L 162.35555555555584 341.176470588235 M 168.82666666666694 274.11764705882365 L 168.82666666666694 341.176470588235 M 175.29777777777804 274.11764705882365 L 175.29777777777804 341.176470588235 M 181.76888888888914 274.11764705882365 L 181.76888888888914 341.176470588235 M 188.24000000000024 274.11764705882365 L 188.24000000000024 341.176470588235 M 194.71111111111134 274.11764705882365 L 194.71111111111134 341.176470588235 M 130.00000000000034 274.11764705882365 L 197.0588235294117 274.11764705882365 M 130.00000000000034 280.58875816993475 L 197.0588235294117 280.58875816993475 M 130.00000000000034 287.05986928104585 L 197.0588235294117 287.05986928104585 M 130.00000000000034 293.53098039215695 L 197.0588235294117 293.53098039215695 M 130.00000000000034 300.00209150326805 L 197.0588235294117 300.00209150326805 M 130.00000000000034 306.47320261437915 L 197.0588235294117 306.47320261437915 M 130.00000000000034 312.94431372549025 L 197.0588235294117 312.94431372549025 M 130.00000000000034 319.41542483660135 L 197.0588235294117 319.41542483660135 M 130.00000000000034 325.88653594771245 L 197.0588235294117 325.88653594771245 M 130.00000000000034 332.35764705882355 L 197.0588235294117 332.35764705882355 M 130.00000000000034 338.82875816993464 L 197.0588235294117 338.82875816993464 "/>
            </g>
        </pattern>
        <pattern latexdraw:type="crosshatch"
            latexdraw:rotationAngle="0.0" latexdraw:size="5.06"
            patternUnits="userSpaceOnUse" id="pattern673329022" x="0"
            y="0" width="174" height="458">
            <g stroke="#ff3333" stroke-width="1.4111111111111112" stroke-dasharray="none">
                <path d="M 110.58823529411791 395.2941176470589 L 110.58823529411791 458.823529411765 M 117.05934640522902 395.2941176470589 L 117.05934640522902 458.823529411765 M 123.53045751634014 395.2941176470589 L 123.53045751634014 458.823529411765 M 130.00156862745123 395.2941176470589 L 130.00156862745123 458.823529411765 M 136.47267973856233 395.2941176470589 L 136.47267973856233 458.823529411765 M 142.94379084967343 395.2941176470589 L 142.94379084967343 458.823529411765 M 149.41490196078453 395.2941176470589 L 149.41490196078453 458.823529411765 M 155.88601307189563 395.2941176470589 L 155.88601307189563 458.823529411765 M 162.35712418300673 395.2941176470589 L 162.35712418300673 458.823529411765 M 168.82823529411783 395.2941176470589 L 168.82823529411783 458.823529411765 M 110.58823529411791 395.2941176470589 L 174.117647058824 395.2941176470589 M 110.58823529411791 401.76522875817 L 174.117647058824 401.76522875817 M 110.58823529411791 408.2363398692811 L 174.117647058824 408.2363398692811 M 110.58823529411791 414.7074509803922 L 174.117647058824 414.7074509803922 M 110.58823529411791 421.1785620915033 L 174.117647058824 421.1785620915033 M 110.58823529411791 427.6496732026144 L 174.117647058824 427.6496732026144 M 110.58823529411791 434.1207843137255 L 174.117647058824 434.1207843137255 M 110.58823529411791 440.5918954248366 L 174.117647058824 440.5918954248366 M 110.58823529411791 447.0630065359477 L 174.117647058824 447.0630065359477 M 110.58823529411791 453.5341176470588 L 174.117647058824 453.5341176470588 "/>
            </g>
        </pattern>
        <marker overflow="visible" orient="auto" id="arrow0-2131577536">
            <path
                d="M 0.0 0.0 L 3.1704166666666667 1.1322916666666667 L 3.1704166666666667 0.0 L 3.1704166666666667 -1.1322916666666667 z "
                latexdraw:arrSizeNum="2.0" fill="black"/>
        </marker>
        <pattern latexdraw:type="crosshatch"
            latexdraw:rotationAngle="1.5707963267948966"
            latexdraw:size="10.06" patternUnits="userSpaceOnUse"
            id="pattern466404023" x="0" y="0" width="77" height="623">
            <g stroke="#ff0033" stroke-width="1.4111111111111112" stroke-dasharray="none">
                <path d="M 23.529411764705884 598.8235294117649 L 77.64705882352926 598.8235294117649 M 23.529411764705884 610.294640522876 L 77.64705882352926 610.294640522876 M 23.529411764705884 621.7657516339871 L 77.64705882352926 621.7657516339871 M 23.529411764705884 598.8235294117649 L 23.529411764705884 623.5294117647061 M 35.000522875817 598.8235294117649 L 35.000522875817 623.5294117647061 M 46.47163398692811 598.8235294117649 L 46.47163398692811 623.5294117647061 M 57.942745098039225 598.8235294117649 L 57.942745098039225 623.5294117647061 M 69.41385620915034 598.8235294117649 L 69.41385620915034 623.5294117647061 "/>
            </g>
        </pattern>
        <pattern latexdraw:type="crosshatch"
            latexdraw:rotationAngle="1.5707963267948966"
            latexdraw:size="5.06" patternUnits="userSpaceOnUse"
            id="pattern1863256432" x="0" y="0" width="77" height="595">
            <g stroke="#ff0033" stroke-width="1.4111111111111112" stroke-dasharray="none">
                <path d="M 22.352941176470722 569.4117647058825 L 77.64705882353019 569.4117647058825 M 22.352941176470722 575.8828758169936 L 77.64705882353019 575.8828758169936 M 22.352941176470722 582.3539869281047 L 77.64705882353019 582.3539869281047 M 22.352941176470722 588.8250980392158 L 77.64705882353019 588.8250980392158 M 22.352941176470722 569.4117647058825 L 22.352941176470722 595.294117647059 M 28.824052287581832 569.4117647058825 L 28.824052287581832 595.294117647059 M 35.29516339869294 569.4117647058825 L 35.29516339869294 595.294117647059 M 41.766274509804056 569.4117647058825 L 41.766274509804056 595.294117647059 M 48.23738562091517 569.4117647058825 L 48.23738562091517 595.294117647059 M 54.70849673202628 569.4117647058825 L 54.70849673202628 595.294117647059 M 61.1796078431374 569.4117647058825 L 61.1796078431374 595.294117647059 M 67.6507189542485 569.4117647058825 L 67.6507189542485 595.294117647059 M 74.12183006535962 569.4117647058825 L 74.12183006535962 595.294117647059 "/>
            </g>
        </pattern>
        <pattern latexdraw:type="crosshatch"
            latexdraw:rotationAngle="1.5707963267948966"
            latexdraw:size="13.06" patternUnits="userSpaceOnUse"
            id="pattern1059331893" x="0" y="0" width="352" height="276">
            <g stroke="#ff0033" stroke-width="1.4111111111111112" stroke-dasharray="none">
                <path d="M 182.35294117647058 207.05882352941177 L 352.94117647058823 207.05882352941177 M 182.35294117647058 221.52993464052287 L 352.94117647058823 221.52993464052287 M 182.35294117647058 236.00104575163397 L 352.94117647058823 236.00104575163397 M 182.35294117647058 250.47215686274507 L 352.94117647058823 250.47215686274507 M 182.35294117647058 264.94326797385617 L 352.94117647058823 264.94326797385617 M 182.35294117647058 207.05882352941177 L 182.35294117647058 276.47058823529414 M 196.82405228758168 207.05882352941177 L 196.82405228758168 276.47058823529414 M 211.29516339869278 207.05882352941177 L 211.29516339869278 276.47058823529414 M 225.76627450980388 207.05882352941177 L 225.76627450980388 276.47058823529414 M 240.23738562091498 207.05882352941177 L 240.23738562091498 276.47058823529414 M 254.70849673202608 207.05882352941177 L 254.70849673202608 276.47058823529414 M 269.1796078431372 207.05882352941177 L 269.1796078431372 276.47058823529414 M 283.6507189542483 207.05882352941177 L 283.6507189542483 276.47058823529414 M 298.1218300653594 207.05882352941177 L 298.1218300653594 276.47058823529414 M 312.5929411764705 207.05882352941177 L 312.5929411764705 276.47058823529414 M 327.0640522875816 207.05882352941177 L 327.0640522875816 276.47058823529414 M 341.5351633986927 207.05882352941177 L 341.5351633986927 276.47058823529414 "/>
            </g>
        </pattern>
        <pattern latexdraw:type="hlines"
            latexdraw:rotationAngle="1.5707963267948966"
            latexdraw:size="10.06" patternUnits="userSpaceOnUse"
            id="pattern1186828588" x="0" y="0" width="518" height="484">
            <g stroke="#66cc00" stroke-width="1.4111111111111112" stroke-dasharray="none">
                <path d="M 202.35294117647058 261.1764705882353 L 202.35294117647058 484.7058823529412 M 213.82405228758168 261.1764705882353 L 213.82405228758168 484.7058823529412 M 225.29516339869278 261.1764705882353 L 225.29516339869278 484.7058823529412 M 236.76627450980388 261.1764705882353 L 236.76627450980388 484.7058823529412 M 248.23738562091498 261.1764705882353 L 248.23738562091498 484.7058823529412 M 259.7084967320261 261.1764705882353 L 259.7084967320261 484.7058823529412 M 271.1796078431372 261.1764705882353 L 271.1796078431372 484.7058823529412 M 282.6507189542483 261.1764705882353 L 282.6507189542483 484.7058823529412 M 294.1218300653594 261.1764705882353 L 294.1218300653594 484.7058823529412 M 305.5929411764705 261.1764705882353 L 305.5929411764705 484.7058823529412 M 317.0640522875816 261.1764705882353 L 317.0640522875816 484.7058823529412 M 328.5351633986927 261.1764705882353 L 328.5351633986927 484.7058823529412 M 340.0062745098038 261.1764705882353 L 340.0062745098038 484.7058823529412 M 351.4773856209149 261.1764705882353 L 351.4773856209149 484.7058823529412 M 362.948496732026 261.1764705882353 L 362.948496732026 484.7058823529412 M 374.4196078431371 261.1764705882353 L 374.4196078431371 484.7058823529412 M 385.8907189542482 261.1764705882353 L 385.8907189542482 484.7058823529412 M 397.3618300653593 261.1764705882353 L 397.3618300653593 484.7058823529412 M 408.8329411764704 261.1764705882353 L 408.8329411764704 484.7058823529412 M 420.3040522875815 261.1764705882353 L 420.3040522875815 484.7058823529412 M 431.7751633986926 261.1764705882353 L 431.7751633986926 484.7058823529412 M 443.2462745098037 261.1764705882353 L 443.2462745098037 484.7058823529412 M 454.7173856209148 261.1764705882353 L 454.7173856209148 484.7058823529412 M 466.1884967320259 261.1764705882353 L 466.1884967320259 484.7058823529412 M 477.659607843137 261.1764705882353 L 477.659607843137 484.7058823529412 M 489.1307189542481 261.1764705882353 L 489.1307189542481 484.7058823529412 M 500.6018300653592 261.1764705882353 L 500.6018300653592 484.7058823529412 M 512.0729411764703 261.1764705882353 L 512.0729411764703 484.7058823529412 "/>
            </g>
        </pattern>
        <pattern latexdraw:type="hlines"
            latexdraw:rotationAngle="1.5707963267948966"
            latexdraw:size="10.06" patternUnits="userSpaceOnUse"
            id="pattern285431805" x="0" y="0" width="744" height="624">
            <g stroke="#66cc00" stroke-width="1.4111111111111112" stroke-dasharray="none">
                <path d="M 689.4117647058821 601.1764705882354 L 689.4117647058821 624.7058823529414 M 700.8828758169932 601.1764705882354 L 700.8828758169932 624.7058823529414 M 712.3539869281043 601.1764705882354 L 712.3539869281043 624.7058823529414 M 723.8250980392154 601.1764705882354 L 723.8250980392154 624.7058823529414 M 735.2962091503265 601.1764705882354 L 735.2962091503265 624.7058823529414 "/>
            </g>
        </pattern>
        <pattern latexdraw:type="hlines"
            latexdraw:rotationAngle="1.5707963267948966"
            latexdraw:size="10.06" patternUnits="userSpaceOnUse"
            id="pattern1592429943" x="0" y="0" width="1081" height="562">
            <g stroke="#3366ff" stroke-width="1.4111111111111112" stroke-dasharray="none">
                <path d="M 989.6638422847002 62.42473346038912 L 989.6638422847002 562.6480981285476 M 1001.1349533958113 62.42473346038912 L 1001.1349533958113 562.6480981285476 M 1012.6060645069224 62.42473346038912 L 1012.6060645069224 562.6480981285476 M 1024.0771756180336 62.42473346038912 L 1024.0771756180336 562.6480981285476 M 1035.5482867291448 62.42473346038912 L 1035.5482867291448 562.6480981285476 M 1047.019397840256 62.42473346038912 L 1047.019397840256 562.6480981285476 M 1058.4905089513672 62.42473346038912 L 1058.4905089513672 562.6480981285476 M 1069.9616200624785 62.42473346038912 L 1069.9616200624785 562.6480981285476 M 1081.4327311735897 62.42473346038912 L 1081.4327311735897 562.6480981285476 "/>
            </g>
        </pattern>
        <pattern latexdraw:type="hlines"
            latexdraw:rotationAngle="1.5707963267948966"
            latexdraw:size="10.06" patternUnits="userSpaceOnUse"
            id="pattern1831694152" x="0" y="0" width="179" height="285">
            <g stroke="#66cc00" stroke-width="1.4111111111111112" stroke-dasharray="none">
                <path d="M 11.176470588234759 79.41176470588235 L 11.176470588234759 285.29411764705935 M 22.64758169934587 79.41176470588235 L 22.64758169934587 285.29411764705935 M 34.118692810456984 79.41176470588235 L 34.118692810456984 285.29411764705935 M 45.5898039215681 79.41176470588235 L 45.5898039215681 285.29411764705935 M 57.06091503267921 79.41176470588235 L 57.06091503267921 285.29411764705935 M 68.53202614379032 79.41176470588235 L 68.53202614379032 285.29411764705935 M 80.00313725490143 79.41176470588235 L 80.00313725490143 285.29411764705935 M 91.47424836601255 79.41176470588235 L 91.47424836601255 285.29411764705935 M 102.94535947712366 79.41176470588235 L 102.94535947712366 285.29411764705935 M 114.41647058823477 79.41176470588235 L 114.41647058823477 285.29411764705935 M 125.88758169934589 79.41176470588235 L 125.88758169934589 285.29411764705935 M 137.358692810457 79.41176470588235 L 137.358692810457 285.29411764705935 M 148.8298039215681 79.41176470588235 L 148.8298039215681 285.29411764705935 M 160.3009150326792 79.41176470588235 L 160.3009150326792 285.29411764705935 M 171.7720261437903 79.41176470588235 L 171.7720261437903 285.29411764705935 "/>
            </g>
        </pattern>
        <pattern latexdraw:type="hlines"
            latexdraw:rotationAngle="1.5707963267948966"
            latexdraw:size="10.06" patternUnits="userSpaceOnUse"
            id="pattern364388573" x="0" y="0" width="744" height="596">
            <g stroke="#3366ff" stroke-width="1.4111111111111112" stroke-dasharray="none">
                <path d="M 690.5882352941171 570.588235294118 L 690.5882352941171 596.4705882352945 M 702.0593464052282 570.588235294118 L 702.0593464052282 596.4705882352945 M 713.5304575163393 570.588235294118 L 713.5304575163393 596.4705882352945 M 725.0015686274504 570.588235294118 L 725.0015686274504 596.4705882352945 M 736.4726797385615 570.588235294118 L 736.4726797385615 596.4705882352945 "/>
            </g>
        </pattern>
        <marker overflow="visible" orient="auto" id="arrow0-1145209654">
            <path
                d="M 0.0 0.0 L 3.1704166666666667 1.1322916666666667 L 3.1704166666666667 0.0 L 3.1704166666666667 -1.1322916666666667 z "
                latexdraw:arrSizeNum="2.0" fill="black"/>
        </marker>
        <pattern latexdraw:type="hlines"
            latexdraw:rotationAngle="1.5707963267948966"
            latexdraw:size="10.06" patternUnits="userSpaceOnUse"
            id="pattern288393389" x="0" y="0" width="994" height="419">
            <g stroke="#66cc00" stroke-width="1.4111111111111112" stroke-dasharray="none">
                <path d="M 586.4705882352941 220.58823529411765 L 586.4705882352941 419.4117647058824 M 597.9416993464052 220.58823529411765 L 597.9416993464052 419.4117647058824 M 609.4128104575163 220.58823529411765 L 609.4128104575163 419.4117647058824 M 620.8839215686274 220.58823529411765 L 620.8839215686274 419.4117647058824 M 632.3550326797385 220.58823529411765 L 632.3550326797385 419.4117647058824 M 643.8261437908496 220.58823529411765 L 643.8261437908496 419.4117647058824 M 655.2972549019607 220.58823529411765 L 655.2972549019607 419.4117647058824 M 666.7683660130718 220.58823529411765 L 666.7683660130718 419.4117647058824 M 678.2394771241829 220.58823529411765 L 678.2394771241829 419.4117647058824 M 689.710588235294 220.58823529411765 L 689.710588235294 419.4117647058824 M 701.1816993464051 220.58823529411765 L 701.1816993464051 419.4117647058824 M 712.6528104575162 220.58823529411765 L 712.6528104575162 419.4117647058824 M 724.1239215686273 220.58823529411765 L 724.1239215686273 419.4117647058824 M 735.5950326797384 220.58823529411765 L 735.5950326797384 419.4117647058824 M 747.0661437908495 220.58823529411765 L 747.0661437908495 419.4117647058824 M 758.5372549019606 220.58823529411765 L 758.5372549019606 419.4117647058824 M 770.0083660130717 220.58823529411765 L 770.0083660130717 419.4117647058824 M 781.4794771241828 220.58823529411765 L 781.4794771241828 419.4117647058824 M 792.9505882352939 220.58823529411765 L 792.9505882352939 419.4117647058824 M 804.421699346405 220.58823529411765 L 804.421699346405 419.4117647058824 M 815.8928104575161 220.58823529411765 L 815.8928104575161 419.4117647058824 M 827.3639215686272 220.58823529411765 L 827.3639215686272 419.4117647058824 M 838.8350326797383 220.58823529411765 L 838.8350326797383 419.4117647058824 M 850.3061437908494 220.58823529411765 L 850.3061437908494 419.4117647058824 M 861.7772549019605 220.58823529411765 L 861.7772549019605 419.4117647058824 M 873.2483660130716 220.58823529411765 L 873.2483660130716 419.4117647058824 M 884.7194771241827 220.58823529411765 L 884.7194771241827 419.4117647058824 M 896.1905882352938 220.58823529411765 L 896.1905882352938 419.4117647058824 M 907.6616993464049 220.58823529411765 L 907.6616993464049 419.4117647058824 M 919.132810457516 220.58823529411765 L 919.132810457516 419.4117647058824 M 930.6039215686271 220.58823529411765 L 930.6039215686271 419.4117647058824 M 942.0750326797382 220.58823529411765 L 942.0750326797382 419.4117647058824 M 953.5461437908493 220.58823529411765 L 953.5461437908493 419.4117647058824 M 965.0172549019604 220.58823529411765 L 965.0172549019604 419.4117647058824 M 976.4883660130715 220.58823529411765 L 976.4883660130715 419.4117647058824 M 987.9594771241826 220.58823529411765 L 987.9594771241826 419.4117647058824 "/>
            </g>
        </pattern>
        <pattern latexdraw:type="crosshatch"
            latexdraw:rotationAngle="0.0" latexdraw:size="5.06"
            patternUnits="userSpaceOnUse" id="pattern443423511" x="0"
            y="0" width="962" height="217">
            <g stroke="#ff3333" stroke-width="1.4111111111111112" stroke-dasharray="none">
                <path d="M 891.764705882355 147.0588235294117 L 891.764705882355 217.64705882352837 M 898.2358169934661 147.0588235294117 L 898.2358169934661 217.64705882352837 M 904.7069281045772 147.0588235294117 L 904.7069281045772 217.64705882352837 M 911.1780392156883 147.0588235294117 L 911.1780392156883 217.64705882352837 M 917.6491503267994 147.0588235294117 L 917.6491503267994 217.64705882352837 M 924.1202614379105 147.0588235294117 L 924.1202614379105 217.64705882352837 M 930.5913725490216 147.0588235294117 L 930.5913725490216 217.64705882352837 M 937.0624836601327 147.0588235294117 L 937.0624836601327 217.64705882352837 M 943.5335947712438 147.0588235294117 L 943.5335947712438 217.64705882352837 M 950.0047058823549 147.0588235294117 L 950.0047058823549 217.64705882352837 M 956.475816993466 147.0588235294117 L 956.475816993466 217.64705882352837 M 891.764705882355 147.0588235294117 L 962.3529411764716 147.0588235294117 M 891.764705882355 153.5299346405228 L 962.3529411764716 153.5299346405228 M 891.764705882355 160.0010457516339 L 962.3529411764716 160.0010457516339 M 891.764705882355 166.472156862745 L 962.3529411764716 166.472156862745 M 891.764705882355 172.9432679738561 L 962.3529411764716 172.9432679738561 M 891.764705882355 179.4143790849672 L 962.3529411764716 179.4143790849672 M 891.764705882355 185.8854901960783 L 962.3529411764716 185.8854901960783 M 891.764705882355 192.3566013071894 L 962.3529411764716 192.3566013071894 M 891.764705882355 198.8277124183005 L 962.3529411764716 198.8277124183005 M 891.764705882355 205.2988235294116 L 962.3529411764716 205.2988235294116 M 891.764705882355 211.7699346405227 L 962.3529411764716 211.7699346405227 "/>
            </g>
        </pattern>
        <pattern latexdraw:type="crosshatch"
            latexdraw:rotationAngle="1.5707963267948966"
            latexdraw:size="13.06" patternUnits="userSpaceOnUse"
            id="pattern1831964485" x="0" y="0" width="1040" height="545">
            <g stroke="#ff0033" stroke-width="1.4111111111111112" stroke-dasharray="none">
                <path d="M 649.9999999999999 434.70588235294053 L 1040.5882352941176 434.70588235294053 M 649.9999999999999 449.17699346405163 L 1040.5882352941176 449.17699346405163 M 649.9999999999999 463.64810457516273 L 1040.5882352941176 463.64810457516273 M 649.9999999999999 478.11921568627383 L 1040.5882352941176 478.11921568627383 M 649.9999999999999 492.59032679738493 L 1040.5882352941176 492.59032679738493 M 649.9999999999999 507.06143790849603 L 1040.5882352941176 507.06143790849603 M 649.9999999999999 521.5325490196071 L 1040.5882352941176 521.5325490196071 M 649.9999999999999 536.0036601307182 L 1040.5882352941176 536.0036601307182 M 649.9999999999999 434.70588235294053 L 649.9999999999999 545.294117647059 M 664.471111111111 434.70588235294053 L 664.471111111111 545.294117647059 M 678.9422222222221 434.70588235294053 L 678.9422222222221 545.294117647059 M 693.4133333333332 434.70588235294053 L 693.4133333333332 545.294117647059 M 707.8844444444443 434.70588235294053 L 707.8844444444443 545.294117647059 M 722.3555555555554 434.70588235294053 L 722.3555555555554 545.294117647059 M 736.8266666666665 434.70588235294053 L 736.8266666666665 545.294117647059 M 751.2977777777776 434.70588235294053 L 751.2977777777776 545.294117647059 M 765.7688888888887 434.70588235294053 L 765.7688888888887 545.294117647059 M 780.2399999999998 434.70588235294053 L 780.2399999999998 545.294117647059 M 794.7111111111109 434.70588235294053 L 794.7111111111109 545.294117647059 M 809.182222222222 434.70588235294053 L 809.182222222222 545.294117647059 M 823.6533333333331 434.70588235294053 L 823.6533333333331 545.294117647059 M 838.1244444444442 434.70588235294053 L 838.1244444444442 545.294117647059 M 852.5955555555553 434.70588235294053 L 852.5955555555553 545.294117647059 M 867.0666666666664 434.70588235294053 L 867.0666666666664 545.294117647059 M 881.5377777777775 434.70588235294053 L 881.5377777777775 545.294117647059 M 896.0088888888886 434.70588235294053 L 896.0088888888886 545.294117647059 M 910.4799999999997 434.70588235294053 L 910.4799999999997 545.294117647059 M 924.9511111111108 434.70588235294053 L 924.9511111111108 545.294117647059 M 939.4222222222219 434.70588235294053 L 939.4222222222219 545.294117647059 M 953.893333333333 434.70588235294053 L 953.893333333333 545.294117647059 M 968.3644444444441 434.70588235294053 L 968.3644444444441 545.294117647059 M 982.8355555555552 434.70588235294053 L 982.8355555555552 545.294117647059 M 997.3066666666663 434.70588235294053 L 997.3066666666663 545.294117647059 M 1011.7777777777774 434.70588235294053 L 1011.7777777777774 545.294117647059 M 1026.2488888888886 434.70588235294053 L 1026.2488888888886 545.294117647059 "/>
            </g>
        </pattern>
        <pattern latexdraw:type="crosshatch"
            latexdraw:rotationAngle="1.5707963267948966"
            latexdraw:size="13.06" patternUnits="userSpaceOnUse"
            id="pattern1983730136" x="0" y="0" width="886" height="261">
            <g stroke="#ff0033" stroke-width="1.4111111111111112" stroke-dasharray="none">
                <path d="M 591.1764705882351 94.70588235294065 L 886.4705882352941 94.70588235294065 M 591.1764705882351 109.17699346405176 L 886.4705882352941 109.17699346405176 M 591.1764705882351 123.64810457516288 L 886.4705882352941 123.64810457516288 M 591.1764705882351 138.11921568627398 L 886.4705882352941 138.11921568627398 M 591.1764705882351 152.59032679738507 L 886.4705882352941 152.59032679738507 M 591.1764705882351 167.06143790849617 L 886.4705882352941 167.06143790849617 M 591.1764705882351 181.53254901960727 L 886.4705882352941 181.53254901960727 M 591.1764705882351 196.00366013071837 L 886.4705882352941 196.00366013071837 M 591.1764705882351 210.47477124182947 L 886.4705882352941 210.47477124182947 M 591.1764705882351 224.94588235294057 L 886.4705882352941 224.94588235294057 M 591.1764705882351 239.41699346405167 L 886.4705882352941 239.41699346405167 M 591.1764705882351 253.88810457516277 L 886.4705882352941 253.88810457516277 M 591.1764705882351 94.70588235294065 L 591.1764705882351 261.76470588235225 M 605.6475816993462 94.70588235294065 L 605.6475816993462 261.76470588235225 M 620.1186928104573 94.70588235294065 L 620.1186928104573 261.76470588235225 M 634.5898039215684 94.70588235294065 L 634.5898039215684 261.76470588235225 M 649.0609150326795 94.70588235294065 L 649.0609150326795 261.76470588235225 M 663.5320261437906 94.70588235294065 L 663.5320261437906 261.76470588235225 M 678.0031372549017 94.70588235294065 L 678.0031372549017 261.76470588235225 M 692.4742483660128 94.70588235294065 L 692.4742483660128 261.76470588235225 M 706.9453594771239 94.70588235294065 L 706.9453594771239 261.76470588235225 M 721.416470588235 94.70588235294065 L 721.416470588235 261.76470588235225 M 735.8875816993461 94.70588235294065 L 735.8875816993461 261.76470588235225 M 750.3586928104572 94.70588235294065 L 750.3586928104572 261.76470588235225 M 764.8298039215683 94.70588235294065 L 764.8298039215683 261.76470588235225 M 779.3009150326794 94.70588235294065 L 779.3009150326794 261.76470588235225 M 793.7720261437905 94.70588235294065 L 793.7720261437905 261.76470588235225 M 808.2431372549016 94.70588235294065 L 808.2431372549016 261.76470588235225 M 822.7142483660127 94.70588235294065 L 822.7142483660127 261.76470588235225 M 837.1853594771238 94.70588235294065 L 837.1853594771238 261.76470588235225 M 851.6564705882349 94.70588235294065 L 851.6564705882349 261.76470588235225 M 866.127581699346 94.70588235294065 L 866.127581699346 261.76470588235225 M 880.5986928104571 94.70588235294065 L 880.5986928104571 261.76470588235225 "/>
            </g>
        </pattern>
        <marker overflow="visible" orient="auto" id="arrow0-625740931">
            <path
                d="M 0.0 0.0 L 3.1704166666666667 1.1322916666666667 L 3.1704166666666667 0.0 L 3.1704166666666667 -1.1322916666666667 z "
                latexdraw:arrSizeNum="2.0" fill="black"/>
        </marker>
        <pattern latexdraw:type="hlines"
            latexdraw:rotationAngle="1.5707963267948966"
            latexdraw:size="10.06" patternUnits="userSpaceOnUse"
            id="pattern1636688155" x="0" y="0" width="428" height="566">
            <g stroke="#3366ff" stroke-width="1.4111111111111112" stroke-dasharray="none">
                <path d="M 2.9411764705878607 387.64705882352933 L 2.9411764705878607 566.470588235294 M 14.412287581698973 387.64705882352933 L 14.412287581698973 566.470588235294 M 25.883398692810083 387.64705882352933 L 25.883398692810083 566.470588235294 M 37.3545098039212 387.64705882352933 L 37.3545098039212 566.470588235294 M 48.82562091503231 387.64705882352933 L 48.82562091503231 566.470588235294 M 60.296732026143424 387.64705882352933 L 60.296732026143424 566.470588235294 M 71.76784313725453 387.64705882352933 L 71.76784313725453 566.470588235294 M 83.23895424836564 387.64705882352933 L 83.23895424836564 566.470588235294 M 94.71006535947676 387.64705882352933 L 94.71006535947676 566.470588235294 M 106.18117647058787 387.64705882352933 L 106.18117647058787 566.470588235294 M 117.65228758169899 387.64705882352933 L 117.65228758169899 566.470588235294 M 129.1233986928101 387.64705882352933 L 129.1233986928101 566.470588235294 M 140.5945098039212 387.64705882352933 L 140.5945098039212 566.470588235294 M 152.0656209150323 387.64705882352933 L 152.0656209150323 566.470588235294 M 163.5367320261434 387.64705882352933 L 163.5367320261434 566.470588235294 M 175.0078431372545 387.64705882352933 L 175.0078431372545 566.470588235294 M 186.4789542483656 387.64705882352933 L 186.4789542483656 566.470588235294 M 197.9500653594767 387.64705882352933 L 197.9500653594767 566.470588235294 M 209.4211764705878 387.64705882352933 L 209.4211764705878 566.470588235294 M 220.8922875816989 387.64705882352933 L 220.8922875816989 566.470588235294 M 232.36339869281 387.64705882352933 L 232.36339869281 566.470588235294 M 243.8345098039211 387.64705882352933 L 243.8345098039211 566.470588235294 M 255.3056209150322 387.64705882352933 L 255.3056209150322 566.470588235294 M 266.7767320261433 387.64705882352933 L 266.7767320261433 566.470588235294 M 278.2478431372544 387.64705882352933 L 278.2478431372544 566.470588235294 M 289.7189542483655 387.64705882352933 L 289.7189542483655 566.470588235294 M 301.1900653594766 387.64705882352933 L 301.1900653594766 566.470588235294 M 312.6611764705877 387.64705882352933 L 312.6611764705877 566.470588235294 M 324.1322875816988 387.64705882352933 L 324.1322875816988 566.470588235294 M 335.6033986928099 387.64705882352933 L 335.6033986928099 566.470588235294 M 347.074509803921 387.64705882352933 L 347.074509803921 566.470588235294 M 358.5456209150321 387.64705882352933 L 358.5456209150321 566.470588235294 M 370.0167320261432 387.64705882352933 L 370.0167320261432 566.470588235294 M 381.4878431372543 387.64705882352933 L 381.4878431372543 566.470588235294 M 392.9589542483654 387.64705882352933 L 392.9589542483654 566.470588235294 M 404.4300653594765 387.64705882352933 L 404.4300653594765 566.470588235294 M 415.9011764705876 387.64705882352933 L 415.9011764705876 566.470588235294 M 427.3722875816987 387.64705882352933 L 427.3722875816987 566.470588235294 "/>
            </g>
        </pattern>
        <pattern latexdraw:type="crosshatch"
            latexdraw:rotationAngle="1.5707963267948966"
            latexdraw:size="13.06" patternUnits="userSpaceOnUse"
            id="pattern1118159826" x="0" y="0" width="1024" height="243">
            <g stroke="#ff0033" stroke-width="1.4111111111111112" stroke-dasharray="none">
                <path d="M 960.0 107.05882352941126 L 1024.705882352941 107.05882352941126 M 960.0 121.52993464052237 L 1024.705882352941 121.52993464052237 M 960.0 136.00104575163348 L 1024.705882352941 136.00104575163348 M 960.0 150.47215686274458 L 1024.705882352941 150.47215686274458 M 960.0 164.94326797385568 L 1024.705882352941 164.94326797385568 M 960.0 179.41437908496678 L 1024.705882352941 179.41437908496678 M 960.0 193.88549019607788 L 1024.705882352941 193.88549019607788 M 960.0 208.35660130718898 L 1024.705882352941 208.35660130718898 M 960.0 222.82771241830008 L 1024.705882352941 222.82771241830008 M 960.0 237.29882352941118 L 1024.705882352941 237.29882352941118 M 960.0 107.05882352941126 L 960.0 243.52941176470534 M 974.4711111111111 107.05882352941126 L 974.4711111111111 243.52941176470534 M 988.9422222222222 107.05882352941126 L 988.9422222222222 243.52941176470534 M 1003.4133333333333 107.05882352941126 L 1003.4133333333333 243.52941176470534 M 1017.8844444444444 107.05882352941126 L 1017.8844444444444 243.52941176470534 "/>
            </g>
        </pattern>
        <pattern latexdraw:type="crosshatch"
            latexdraw:rotationAngle="0.0" latexdraw:size="5.06"
            patternUnits="userSpaceOnUse" id="pattern909894591" x="0"
            y="0" width="607" height="493">
            <g stroke="#ff3333" stroke-width="1.4111111111111112" stroke-dasharray="none">
                <path d="M 565.2941176470608 451.1764705882356 L 565.2941176470608 493.52941176470495 M 571.7652287581719 451.1764705882356 L 571.7652287581719 493.52941176470495 M 578.236339869283 451.1764705882356 L 578.236339869283 493.52941176470495 M 584.7074509803941 451.1764705882356 L 584.7074509803941 493.52941176470495 M 591.1785620915052 451.1764705882356 L 591.1785620915052 493.52941176470495 M 597.6496732026163 451.1764705882356 L 597.6496732026163 493.52941176470495 M 604.1207843137274 451.1764705882356 L 604.1207843137274 493.52941176470495 M 565.2941176470608 451.1764705882356 L 607.6470588235302 451.1764705882356 M 565.2941176470608 457.6475816993467 L 607.6470588235302 457.6475816993467 M 565.2941176470608 464.1186928104578 L 607.6470588235302 464.1186928104578 M 565.2941176470608 470.5898039215689 L 607.6470588235302 470.5898039215689 M 565.2941176470608 477.06091503268 L 607.6470588235302 477.06091503268 M 565.2941176470608 483.5320261437911 L 607.6470588235302 483.5320261437911 M 565.2941176470608 490.0031372549022 L 607.6470588235302 490.0031372549022 "/>
            </g>
        </pattern>
        <marker overflow="visible" orient="auto" id="arrow0-1934705518">
            <path
                d="M 0.0 -2.9409722222222223 L 0.0 2.9409722222222223 "
                latexdraw:tbarSizeNum="5.0" stroke="black" fill="none" stroke-width="1.0"/>
        </marker>
        <marker overflow="visible" orient="auto" id="arrow1-1934705518">
            <path
                d="M 0.0 -2.9409722222222223 L 0.0 2.9409722222222223 "
                latexdraw:tbarSizeNum="5.0" stroke="black" fill="none" stroke-width="1.0"/>
        </marker>
    </defs>
    <metadata>
        <latexdraw:metadata>
            <latexdraw:latexIncludes>
\usepackage{CJKutf8}
\newcommand{\cn}[1]{
  \begin{CJK*}{UTF8}{gbsn}
  #1
  \end{CJK*}
}</latexdraw:latexIncludes>
            <latexdraw:displayXScale>true</latexdraw:displayXScale>
            <latexdraw:displayYScale>true</latexdraw:displayYScale>
            <latexdraw:unit>CM</latexdraw:unit>
            <latexdraw:zoom>0.85</latexdraw:zoom>
            <latexdraw:magneticGridStyle>CUSTOMISED</latexdraw:magneticGridStyle>
            <latexdraw:gridGap>20</latexdraw:gridGap>
            <latexdraw:magneticGrid>false</latexdraw:magneticGrid>
            <latexdraw:version>3.3.6</latexdraw:version>
            <latexdraw:size>
                <latexdraw:width>1440</latexdraw:width>
                <latexdraw:height>803</latexdraw:height>
            </latexdraw:size>
            <latexdraw:position>
                <latexdraw:x>29.0</latexdraw:x>
                <latexdraw:y>23.0</latexdraw:y>
            </latexdraw:position>
        </latexdraw:metadata>
    </metadata>
</svg>
